<?xml version="1.0" encoding="UTF-8" standalone="no"?>
<!-- Created with Inkscape (http://www.inkscape.org/) -->

<svg
   xmlns:osb="http://www.openswatchbook.org/uri/2009/osb"
   xmlns:dc="http://purl.org/dc/elements/1.1/"
   xmlns:cc="http://creativecommons.org/ns#"
   xmlns:rdf="http://www.w3.org/1999/02/22-rdf-syntax-ns#"
   xmlns:svg="http://www.w3.org/2000/svg"
   xmlns="http://www.w3.org/2000/svg"
   xmlns:sodipodi="http://sodipodi.sourceforge.net/DTD/sodipodi-0.dtd"
   xmlns:inkscape="http://www.inkscape.org/namespaces/inkscape"
   sodipodi:docname="matern3_inf1.svg"
   xml:space="preserve"
   height="551.25"
   width="857.5"
   inkscape:version="0.48.0 r9654"
   version="1.1"
   id="svg2"><sodipodi:namedview
     pagecolor="#ffffff"
     bordercolor="#666666"
     borderopacity="1"
     objecttolerance="10"
     gridtolerance="10"
     guidetolerance="10"
     inkscape:pageopacity="0"
     inkscape:pageshadow="2"
     inkscape:window-width="1280"
     inkscape:window-height="952"
     id="namedview4"
     showgrid="false"
     inkscape:zoom="0.59941691"
     inkscape:cx="271.03898"
     inkscape:cy="91.143262"
     inkscape:window-x="0"
     inkscape:window-y="24"
     inkscape:window-maximized="1"
     inkscape:current-layer="g10" /><metadata
     id="metadata8"><rdf:RDF><cc:Work
         rdf:about=""><dc:format>image/svg+xml</dc:format><dc:type
           rdf:resource="http://purl.org/dc/dcmitype/StillImage" /><dc:title /></cc:Work></rdf:RDF></metadata><defs
     id="defs6"><linearGradient
       id="linearGradient4068"
       osb:paint="solid"><stop
         style="stop-color:#000000;stop-opacity:1;"
         offset="0"
         id="stop4070" /></linearGradient></defs><g
     id="g10"
     inkscape:groupmode="layer"
     inkscape:label="matern3_fig"
     transform="matrix(1.25,0,0,-1.25,0,551.25)"><path
       inkscape:connector-curvature="0"
       id="path44"
       style="fill:none;stroke:#000000;stroke-width:1.60000001999999997;stroke-linecap:butt;stroke-linejoin:miter;stroke-miterlimit:4;stroke-opacity:1;stroke-dasharray:none;opacity:1"
       d="m 397.37882,404.11848 0,-135.01208 114.55571,0 0,135.01208 -114.55571,0 z" /><path
       inkscape:connector-curvature="0"
       id="path46"
       style="fill:none;stroke:#000000;stroke-width:1.60000002;stroke-linecap:butt;stroke-linejoin:miter;stroke-miterlimit:4;stroke-opacity:1;stroke-dasharray:none"
       d="m 209.18016,404.11848 0,-306.845649 114.55571,0 0,306.845649 -114.55571,0 z" /><g
       style="stroke-width:0.70393699;stroke-miterlimit:4;stroke-dasharray:none"
       transform="matrix(0.9091723,0,0,-0.9091723,375.98333,305.62177)"
       id="g48"><text
   style="stroke-width:0.70393699;stroke-miterlimit:4;stroke-dasharray:none"
   id="text50"
   transform="matrix(0,1,1,0,440.1,661.5)"><tspan
     id="tspan54"
     y="-9"
     x="-661.5"
     style="font-size:32.40000153px;font-variant:normal;font-weight:normal;writing-mode:lr-tb;fill:#000000;fill-opacity:1;fill-rule:nonzero;stroke:none;font-family:Times New Roman;-inkscape-font-specification:Times-Roman" /></text>




<g
   style="stroke-width:0.70393699;stroke-miterlimit:4;stroke-dasharray:none"
   id="g3059"><g
     word-spacing="normal"
     letter-spacing="normal"
     font-size-adjust="none"
     font-stretch="normal"
     font-weight="normal"
     font-variant="normal"
     font-style="normal"
     stroke-miterlimit="10.433"
     xml:space="preserve"
     transform="matrix(0.7875,0,0,-0.7875,-137.8125,643.125)"
     id="content"
     style="font-style:normal;font-variant:normal;font-weight:normal;font-stretch:normal;letter-spacing:normal;word-spacing:normal;text-anchor:start;fill:none;stroke:#000000;stroke-width:0.89388824;stroke-linecap:butt;stroke-linejoin:miter;stroke-miterlimit:4;stroke-opacity:1;stroke-dasharray:none;stroke-dashoffset:0"><path
       id="path3062"
       d="m 461.73,416.91 0.06,0.03 0.06,0.03 0.07,0.03 0.08,0.04 0.08,0.04 0.09,0.05 0.09,0.05 0.09,0.05 0.09,0.06 0.1,0.06 0.09,0.06 0.1,0.07 0.2,0.14 0.19,0.14 0.1,0.08 0.09,0.07 0.09,0.08 0.09,0.07 0.08,0.08 0.08,0.08 0.07,0.08 0.07,0.07 0.06,0.08 0.06,0.08 0.04,0.07 0.04,0.07 0.04,0.08 0.01,0.03 0.01,0.04 0.01,0.03 0,0.04 0.01,0.03 0,0.03 c 0,0.35 -0.3,0.35 -0.6,0.35 -1.69,0 -6.57,-2.14 -6.57,-7.12 0,-3.59 4.03,-7.28 10.11,-7.28 8.12,0 17.53,5.63 17.53,12.41 0,4.73 -4.98,7.02 -9.01,8.81 -3.49,1.6 -5.78,3.64 -5.78,6.48 0,1.04 0.45,2.99 1.99,4.33 1.49,1.3 4.28,1.45 4.98,1.45 0.55,0 2.64,-0.05 4.78,-1 0.95,-0.45 2.25,-1.04 2.25,-3.18 0,-0.7 -0.05,-0.95 -0.2,-1.5 -0.05,-0.15 -0.1,-0.35 -0.1,-0.5 0,-0.35 0.3,-0.35 0.5,-0.35 0.64,0 1.84,0.5 2.84,1.35 0.64,0.5 1.19,1.14 1.19,3.09 0,2.44 -1.3,3.14 -2.64,3.73 -2.34,1.1 -4.63,1.1 -5.33,1.1 -6.53,0 -14.49,-4.98 -14.49,-10.66 0,-4.19 4.33,-6.18 6.72,-7.23 3.54,-1.59 8.07,-3.88 8.07,-8.07 0,-3.33 -2.44,-7.52 -10.01,-7.52 -5.09,0 -9.17,3.29 -9.17,6.68 0,0.89 0.25,1.79 0.6,2.59 z"
       inkscape:connector-curvature="0"
       style="fill:#000000;stroke-width:0.89388824;stroke-miterlimit:4;stroke-dasharray:none" /></g></g></g><g
       id="g3185"
       transform="matrix(1,0,0,-1,-198.33697,705.42971)"><g
         word-spacing="normal"
         letter-spacing="normal"
         font-size-adjust="none"
         font-stretch="normal"
         font-weight="normal"
         font-variant="normal"
         font-style="normal"
         stroke-miterlimit="10.433"
         xml:space="preserve"
         transform="matrix(0.7875,0,0,-0.7875,-137.8125,643.125)"
         id="g3187"
         style="font-style:normal;font-variant:normal;font-weight:normal;font-stretch:normal;letter-spacing:normal;word-spacing:normal;text-anchor:start;fill:none;stroke:#000000;stroke-linecap:butt;stroke-linejoin:miter;stroke-miterlimit:10.43299961;stroke-opacity:1;stroke-dasharray:none;stroke-dashoffset:0"><path
           id="path3189"
           d="m 480.21,436.93 h 8.27 c 6.57,0 9.06,3.79 9.06,4.44 0,0.25 -0.2,0.34 -0.44,0.34 -0.55,0 -1.85,-0.49 -3.09,-1.39 -0.4,-0.3 -0.5,-0.3 -1.45,-0.3 h -21.77 c -6.17,0 -13.09,-5.33 -13.09,-9.41 0,-0.3 0,-0.6 0.39,-0.6 1.2,0 4.34,1.64 4.44,2.84 0.04,0.85 0.15,1.79 1.14,3.09 0.5,0.6 0.9,0.99 3.09,0.99 h 9.91 c -0.85,-0.54 -1.05,-1.29 -1.14,-1.79 l -5.68,-22.57 c -0.6,-2.44 -1.65,-5.57 -3.09,-8.81 -0.3,-0.6 -0.3,-0.7 -0.3,-0.8 0,-0.3 0.2,-0.35 0.45,-0.35 1,0 3.44,1.35 4.18,2.39 0.3,0.5 2.5,5.58 3.54,9.72 z"
           inkscape:connector-curvature="0"
           style="fill:#000000;stroke-width:0" /></g></g><path
       inkscape:connector-curvature="0"
       id="path42-2"
       style="opacity:1;fill:#e6e6e6;stroke:#000000;stroke-width:1.60000001999999997;stroke-linecap:butt;stroke-linejoin:miter;stroke-miterlimit:4;stroke-opacity:1;stroke-dasharray:none"
       d="m 126.90113,404.1705 0,-229.11142 114.55571,0 0,229.11142 -114.55571,0 z" /><path
       inkscape:connector-curvature="0"
       id="path46-0"
       style="fill:#e6e6e6;stroke:#000000;stroke-width:1.60000002;stroke-linecap:butt;stroke-linejoin:miter;stroke-miterlimit:4;stroke-opacity:1;stroke-dasharray:none"
       d="m 208.04822,404.5987 0,-306.84565 114.55571,0 0,306.84565 -114.55571,0 z" /><path
       inkscape:connector-curvature="0"
       id="path44-6"
       style="opacity:1;fill:#e6e6e6;stroke:#000000;stroke-width:1.60000001999999997;stroke-linecap:butt;stroke-linejoin:miter;stroke-miterlimit:4;stroke-opacity:1;stroke-dasharray:none"
       d="m 396.49646,404.09826 0,-135.01208 114.55571,0 0,135.01208 -114.55571,0 z" /><path
       inkscape:connector-curvature="0"
       id="path42"
       style="fill:none;stroke:#000000;stroke-width:1.60000002;stroke-linecap:butt;stroke-linejoin:miter;stroke-miterlimit:4;stroke-opacity:1;stroke-dasharray:none"
       d="m 126.90113,404.1705 0,-229.11142 114.55571,0 0,229.11142 -114.55571,0 z" /><path
       inkscape:connector-curvature="0"
       id="path32-3"
       style="fill:#5a5a5a;stroke:#000000;stroke-width:2.56323527999999978;stroke-linecap:butt;stroke-linejoin:miter;stroke-miterlimit:4;stroke-opacity:1;stroke-dasharray:none;fill-opacity:1"
       d="m 187.56274,175.62418 c 0,-2.60571 -2.11195,-4.71766 -4.71766,-4.71766 -2.6057,0 -4.71911,2.11195 -4.71911,4.71766 0,2.6057 2.11341,4.71911 4.71911,4.71911 2.60571,0 4.71766,-2.11341 4.71766,-4.71911 z" /><path
       inkscape:connector-curvature="0"
       id="path20"
       style="fill:#5a5a5a;stroke:#000000;stroke-width:2.56323624000000017;stroke-linecap:butt;stroke-linejoin:miter;stroke-miterlimit:4;stroke-opacity:1;stroke-dasharray:none;fill-opacity:1"
       d="m 272.97908,97.146352 c 0,-2.60571 -2.11195,-4.71765 -4.71765,-4.71765 -2.60571,0 -4.71911,2.11194 -4.71911,4.71765 0,2.6057 2.1134,4.719108 4.71911,4.719108 2.6057,0 4.71765,-2.113408 4.71765,-4.719108 z" /><path
       inkscape:connector-curvature="0"
       id="path34-3"
       style="fill:#5a5a5a;stroke:#000000;stroke-width:2.56317377000000013;stroke-linecap:butt;stroke-linejoin:miter;stroke-miterlimit:4;stroke-opacity:1;stroke-dasharray:none;fill-opacity:1"
       d="m 459.82722,269.5789 c 0,-2.60565 -2.1119,-4.71755 -4.71754,-4.71755 -2.60564,0 -4.719,2.1119 -4.719,4.71755 0,2.60564 2.11336,4.71928 4.719,4.71928 2.60564,0 4.71754,-2.11364 4.71754,-4.71928 z" /><path
       inkscape:connector-curvature="0"
       id="path40"
       style="fill:none;stroke:#000000;stroke-width:2.2661221;stroke-linecap:butt;stroke-linejoin:miter;stroke-miterlimit:4;stroke-opacity:1;stroke-dasharray:none"
       d="m 65.329516,405.03241 0,-372.30606 507.011214,0 0,372.30606 -507.011214,0 z" /></g></svg>