<?xml version="1.0" encoding="UTF-8" standalone="no"?>
<!-- Created with Inkscape (http://www.inkscape.org/) -->

<svg
   xmlns:dc="http://purl.org/dc/elements/1.1/"
   xmlns:cc="http://creativecommons.org/ns#"
   xmlns:rdf="http://www.w3.org/1999/02/22-rdf-syntax-ns#"
   xmlns:svg="http://www.w3.org/2000/svg"
   xmlns="http://www.w3.org/2000/svg"
   xmlns:sodipodi="http://sodipodi.sourceforge.net/DTD/sodipodi-0.dtd"
   xmlns:inkscape="http://www.inkscape.org/namespaces/inkscape"
   id="svg3022"
   version="1.1"
   inkscape:version="0.48.0 r9654"
   width="857.5"
   height="551.25"
   xml:space="preserve"
   sodipodi:docname="matern3_inf2.pdf"><metadata
     id="metadata3028"><rdf:RDF><cc:Work
         rdf:about=""><dc:format>image/svg+xml</dc:format><dc:type
           rdf:resource="http://purl.org/dc/dcmitype/StillImage" /><dc:title></dc:title></cc:Work></rdf:RDF></metadata><defs
     id="defs3026" /><sodipodi:namedview
     pagecolor="#ffffff"
     bordercolor="#666666"
     borderopacity="1"
     objecttolerance="10"
     gridtolerance="10"
     guidetolerance="10"
     inkscape:pageopacity="0"
     inkscape:pageshadow="2"
     inkscape:window-width="1280"
     inkscape:window-height="952"
     id="namedview3024"
     showgrid="false"
     inkscape:zoom="0.9324263"
     inkscape:cx="428.75"
     inkscape:cy="275.625"
     inkscape:window-x="0"
     inkscape:window-y="24"
     inkscape:window-maximized="1"
     inkscape:current-layer="g3032" /><g
     id="g3030"
     inkscape:groupmode="layer"
     inkscape:label="matern3_inf2"
     transform="matrix(1.25,0,0,-1.25,0,551.25)"><g
       id="g3032"><path
         d="m 397.379,404.117 0,-135.012 114.555,0 0,135.012 -114.555,0 z"
         style="fill:none;stroke:#000000;stroke-opacity:1;stroke-width:1.6;stroke-linecap:butt;stroke-linejoin:miter;stroke-miterlimit:4;stroke-dasharray:none"
         id="path3034" /><path
         d="m 209.18,404.117 0,-306.844 114.554,0 0,306.844 -114.554,0 z"
         style="fill:none;stroke:#000000;stroke-opacity:1;stroke-width:1.6;stroke-linecap:butt;stroke-linejoin:miter;stroke-miterlimit:4;stroke-dasharray:none"
         id="path3036" /><g
         id="g3038"
         transform="translate(-64,441)"><path
           d="m 643.676,-421.594 0.043,0.024 0.043,0.019 0.047,0.024 0.117,0.054 0.062,0.035 0.067,0.04 0.062,0.035 0.067,0.043 0.07,0.043 0.066,0.043 0.071,0.05 0.144,0.098 0.133,0.102 0.074,0.058 0.063,0.047 0.066,0.059 0.063,0.05 0.058,0.059 0.059,0.055 0.047,0.058 0.05,0.051 0.043,0.055 0.043,0.058 0.032,0.051 0.027,0.051 0.027,0.055 0.008,0.023 0.008,0.027 0.008,0.024 0,0.027 0.008,0.024 0,0.019 c 0,0.25 -0.215,0.25 -0.43,0.25 -1.211,0 -4.707,-1.531 -4.707,-5.097 0,-2.571 2.887,-5.211 7.238,-5.211 5.817,0 12.551,4.031 12.551,8.882 0,3.387 -3.563,5.028 -6.449,6.309 -2.5,1.145 -4.137,2.605 -4.137,4.641 0,0.746 0.32,2.14 1.422,3.101 1.066,0.93 3.066,1.035 3.566,1.035 0.395,0 1.891,-0.035 3.422,-0.715 0.68,-0.32 1.613,-0.746 1.613,-2.277 0,-0.5 -0.039,-0.68 -0.144,-1.074 -0.035,-0.106 -0.07,-0.25 -0.07,-0.356 0,-0.253 0.214,-0.253 0.355,-0.253 0.461,0 1.32,0.359 2.035,0.968 0.457,0.36 0.852,0.817 0.852,2.211 0,1.746 -0.93,2.25 -1.891,2.672 -1.676,0.789 -3.316,0.789 -3.816,0.789 -4.676,0 -10.375,-3.566 -10.375,-7.633 0,-3 3.101,-4.425 4.812,-5.175 2.535,-1.141 5.778,-2.782 5.778,-5.782 0,-2.382 -1.747,-5.382 -7.168,-5.382 -3.645,0 -6.563,2.355 -6.563,4.781 0,0.64 0.176,1.281 0.43,1.855 z"
           style="fill:#000000;fill-opacity:1;fill-rule:nonzero;stroke:#000000;stroke-width:0.63999999;stroke-linecap:butt;stroke-linejoin:miter;stroke-miterlimit:4;stroke-opacity:1;stroke-dasharray:none"
           id="path3040"
           inkscape:connector-curvature="0" /></g><path
         d="m 43.616,406.387 6.512,0 c 5.176,0 7.137,2.984 7.137,3.496 0,0.199 -0.16,0.269 -0.348,0.269 -0.433,0 -1.457,-0.386 -2.433,-1.093 -0.317,-0.239 -0.395,-0.239 -1.141,-0.239 l -17.145,0 c -4.859,0 -10.308,-4.195 -10.308,-7.41 0,-0.234 0,-0.472 0.305,-0.472 0.945,0 3.417,1.292 3.5,2.238 0.031,0.668 0.117,1.406 0.894,2.433 0.395,0.469 0.711,0.778 2.434,0.778 l 7.804,0 c -0.668,-0.426 -0.824,-1.016 -0.898,-1.41 l -4.473,-17.774 c -0.472,-1.922 -1.297,-4.387 -2.433,-6.937 -0.235,-0.473 -0.235,-0.551 -0.235,-0.629 0,-0.239 0.157,-0.278 0.356,-0.278 0.785,0 2.707,1.063 3.289,1.883 0.238,0.395 1.969,4.395 2.789,7.656 l 4.394,17.489 z"
         style="fill:#000000;fill-opacity:1;fill-rule:nonzero;stroke:none"
         id="path3042"
         inkscape:connector-curvature="0" /><path
         d="m 126.902,404.172 0,-229.113 114.555,0 0,229.113 -114.555,0 z"
         style="fill:#e6e6e6;fill-opacity:1;fill-rule:nonzero;stroke:#000000;stroke-opacity:1;stroke-width:1.6;stroke-linecap:butt;stroke-linejoin:miter;stroke-miterlimit:4;stroke-dasharray:none"
         id="path3044" /><path
         d="m 208.047,404.598 0,-306.844 114.558,0 0,306.844 -114.558,0 z"
         style="fill:#e6e6e6;fill-opacity:1;fill-rule:nonzero;stroke:#000000;stroke-opacity:1;stroke-width:1.6;stroke-linecap:butt;stroke-linejoin:miter;stroke-miterlimit:4;stroke-dasharray:none"
         id="path3046" /><path
         d="m 396.496,404.098 0,-135.012 114.555,0 0,135.012 -114.555,0 z"
         style="fill:#e6e6e6;fill-opacity:1;fill-rule:nonzero;stroke:#000000;stroke-opacity:1;stroke-width:1.6;stroke-linecap:butt;stroke-linejoin:miter;stroke-miterlimit:4;stroke-dasharray:none"
         id="path3048" /><path
         d="m 278.184,279.984 c 0,-2.605 -2.11,-4.714 -4.715,-4.714 -2.61,0 -4.723,2.109 -4.723,4.714 0,2.606 2.113,4.719 4.723,4.719 2.605,0 4.715,-2.113 4.715,-4.719 z"
         style="fill:none;stroke:#000000;stroke-opacity:1;stroke-width:2.563235;stroke-linecap:butt;stroke-linejoin:miter;stroke-miterlimit:4;stroke-dasharray:none"
         id="path3050" /><path
         d="m 151.355,263.621 c 0,-2.605 -2.113,-4.719 -4.718,-4.719 -2.606,0 -4.719,2.114 -4.719,4.719 0,2.606 2.113,4.719 4.719,4.719 2.605,0 4.718,-2.113 4.718,-4.719 z"
         style="fill:none;stroke:#000000;stroke-opacity:1;stroke-width:2.563235;stroke-linecap:butt;stroke-linejoin:miter;stroke-miterlimit:4;stroke-dasharray:none"
         id="path3052" /><path
         d="m 229.09,333.172 c 0,-2.606 -2.113,-4.719 -4.719,-4.719 -2.605,0 -4.719,2.113 -4.719,4.719 0,2.605 2.114,4.719 4.719,4.719 2.606,0 4.719,-2.114 4.719,-4.719 z"
         style="fill:none;stroke:#000000;stroke-opacity:1;stroke-width:2.563174;stroke-linecap:butt;stroke-linejoin:miter;stroke-miterlimit:4;stroke-dasharray:none"
         id="path3054" /><path
         d="m 312.934,216.395 c 0,-2.606 -2.114,-4.719 -4.719,-4.719 -2.606,0 -4.719,2.113 -4.719,4.719 0,2.605 2.113,4.718 4.719,4.718 2.605,0 4.719,-2.113 4.719,-4.718 z"
         style="fill:none;stroke:#000000;stroke-opacity:1;stroke-width:2.562925;stroke-linecap:butt;stroke-linejoin:miter;stroke-miterlimit:4;stroke-dasharray:none"
         id="path3056" /><path
         d="m 233.18,128.609 c 0,-2.605 -2.11,-4.718 -4.719,-4.718 -2.606,0 -4.719,2.113 -4.719,4.718 0,2.606 2.113,4.719 4.719,4.719 2.609,0 4.719,-2.113 4.719,-4.719 z"
         style="fill:none;stroke:#000000;stroke-opacity:1;stroke-width:2.56324;stroke-linecap:butt;stroke-linejoin:miter;stroke-miterlimit:4;stroke-dasharray:none"
         id="path3058" /><path
         d="m 126.902,404.172 0,-229.113 114.555,0 0,229.113 -114.555,0 z"
         style="fill:none;stroke:#000000;stroke-opacity:1;stroke-width:1.6;stroke-linecap:butt;stroke-linejoin:miter;stroke-miterlimit:4;stroke-dasharray:none"
         id="path3060" /><path
         d="m 187.562,175.625 c 0,-2.605 -2.113,-4.719 -4.718,-4.719 -2.606,0 -4.719,2.114 -4.719,4.719 0,2.605 2.113,4.719 4.719,4.719 2.605,0 4.718,-2.114 4.718,-4.719 z"
         style="fill:#5a5a5a;fill-opacity:1;fill-rule:nonzero;stroke:#000000;stroke-opacity:1;stroke-width:2.563235;stroke-linecap:butt;stroke-linejoin:miter;stroke-miterlimit:4;stroke-dasharray:none"
         id="path3062" /><path
         d="m 272.98,97.145 c 0,-2.606 -2.113,-4.715 -4.718,-4.715 -2.606,0 -4.719,2.109 -4.719,4.715 0,2.609 2.113,4.722 4.719,4.722 2.605,0 4.718,-2.113 4.718,-4.722 z"
         style="fill:#5a5a5a;fill-opacity:1;fill-rule:nonzero;stroke:#000000;stroke-opacity:1;stroke-width:2.563236;stroke-linecap:butt;stroke-linejoin:miter;stroke-miterlimit:4;stroke-dasharray:none"
         id="path3064" /><path
         d="m 422.617,309.527 c 0,-2.605 -2.113,-4.715 -4.719,-4.715 -2.605,0 -4.718,2.11 -4.718,4.715 0,2.606 2.113,4.719 4.718,4.719 2.606,0 4.719,-2.113 4.719,-4.719 z"
         style="fill:none;stroke:#000000;stroke-opacity:1;stroke-width:2.563236;stroke-linecap:butt;stroke-linejoin:miter;stroke-miterlimit:4;stroke-dasharray:none"
         id="path3066" /><path
         d="m 492.168,366.809 c 0,-2.606 -2.113,-4.719 -4.719,-4.719 -2.605,0 -4.719,2.113 -4.719,4.719 0,2.605 2.114,4.718 4.719,4.718 2.606,0 4.719,-2.113 4.719,-4.718 z"
         style="fill:none;stroke:#000000;stroke-opacity:1;stroke-width:2.563236;stroke-linecap:butt;stroke-linejoin:miter;stroke-miterlimit:4;stroke-dasharray:none"
         id="path3068" /><path
         d="m 459.828,269.578 c 0,-2.605 -2.113,-4.715 -4.719,-4.715 -2.605,0 -4.718,2.11 -4.718,4.715 0,2.606 2.113,4.719 4.718,4.719 2.606,0 4.719,-2.113 4.719,-4.719 z"
         style="fill:#5a5a5a;fill-opacity:1;fill-rule:nonzero;stroke:#000000;stroke-opacity:1;stroke-width:2.563174;stroke-linecap:butt;stroke-linejoin:miter;stroke-miterlimit:4;stroke-dasharray:none"
         id="path3070" /><path
         d="m 65.328,405.031 0,-372.304 507.13734,0 0,372.304 -507.13734,0 z"
         style="fill:none;stroke:#000000;stroke-width:2.26640248;stroke-linecap:butt;stroke-linejoin:miter;stroke-miterlimit:4;stroke-opacity:1;stroke-dasharray:none"
         id="path3072"
         inkscape:connector-curvature="0" /></g></g></svg>