<?xml version="1.0" encoding="UTF-8" standalone="no"?>
<!-- Created with Inkscape (http://www.inkscape.org/) -->

<svg
   xmlns:dc="http://purl.org/dc/elements/1.1/"
   xmlns:cc="http://creativecommons.org/ns#"
   xmlns:rdf="http://www.w3.org/1999/02/22-rdf-syntax-ns#"
   xmlns:svg="http://www.w3.org/2000/svg"
   xmlns="http://www.w3.org/2000/svg"
   xmlns:sodipodi="http://sodipodi.sourceforge.net/DTD/sodipodi-0.dtd"
   xmlns:inkscape="http://www.inkscape.org/namespaces/inkscape"
   id="svg2"
   version="1.1"
   inkscape:version="0.47 r22583"
   width="270.86566"
   height="223.28865"
   xml:space="preserve"
   sodipodi:docname="plot_swedish_l_hc.pdf"><metadata
     id="metadata8"><rdf:RDF><cc:Work
         rdf:about=""><dc:format>image/svg+xml</dc:format><dc:type
           rdf:resource="http://purl.org/dc/dcmitype/StillImage" /><dc:title></dc:title></cc:Work></rdf:RDF></metadata><defs
     id="defs6"><inkscape:perspective
       sodipodi:type="inkscape:persp3d"
       inkscape:vp_x="0 : 0.5 : 1"
       inkscape:vp_y="0 : 1000 : 0"
       inkscape:vp_z="1 : 0.5 : 1"
       inkscape:persp3d-origin="0.5 : 0.33333333 : 1"
       id="perspective10" /><clipPath
       clipPathUnits="userSpaceOnUse"
       id="clipPath20"><path
         d="M 7.5,2.5 2000,2.5 2000,1600 7.5,1600 7.5,2.5 z"
         id="path22" /></clipPath><clipPath
       clipPathUnits="userSpaceOnUse"
       id="clipPath154"><path
         d="m 175,1512.5 0,-1389.168 1760,0 0,1389.168 -1760,0 z"
         id="path156" /></clipPath><inkscape:perspective
       id="perspective3204"
       inkscape:persp3d-origin="0.5 : 0.33333333 : 1"
       inkscape:vp_z="1 : 0.5 : 1"
       inkscape:vp_y="0 : 1000 : 0"
       inkscape:vp_x="0 : 0.5 : 1"
       sodipodi:type="inkscape:persp3d" /><inkscape:perspective
       id="perspective3237"
       inkscape:persp3d-origin="0.5 : 0.33333333 : 1"
       inkscape:vp_z="1 : 0.5 : 1"
       inkscape:vp_y="0 : 1000 : 0"
       inkscape:vp_x="0 : 0.5 : 1"
       sodipodi:type="inkscape:persp3d" /></defs><sodipodi:namedview
     pagecolor="#ffffff"
     bordercolor="#666666"
     borderopacity="1"
     objecttolerance="10"
     gridtolerance="10"
     guidetolerance="10"
     inkscape:pageopacity="0"
     inkscape:pageshadow="2"
     inkscape:window-width="1680"
     inkscape:window-height="974"
     id="namedview4"
     showgrid="false"
     inkscape:zoom="2.36"
     inkscape:cx="145.86565"
     inkscape:cy="121.59374"
     inkscape:window-x="0"
     inkscape:window-y="25"
     inkscape:window-maximized="1"
     inkscape:current-layer="g12" /><g
     id="g12"
     inkscape:groupmode="layer"
     inkscape:label="plot_swedish_l_hc"
     transform="matrix(1.25,0,0,-1.25,20.86565,200)"><g
       id="g14"
       transform="scale(0.1,0.1)"><g
         id="g16"><g
           id="g18"
           clip-path="url(#clipPath20)"><path
             d="m 0,0 2000,0 0,1600 L 0,1600 0,0 z"
             style="fill:#ffffff;fill-opacity:1;fill-rule:nonzero;stroke:none"
             id="path24" /><path
             d="m 175,124.168 1759.17,0 0,1388.33 -1759.17,0 0,-1388.33 z"
             style="fill:#ffffff;fill-opacity:1;fill-rule:evenodd;stroke:none"
             id="path26" /><path
             d="m 175,124.168 0,1388.332 1759.17,0 0,-1388.332 -1759.17,0"
             style="fill:none;stroke:#ffffff;stroke-width:5;stroke-linecap:butt;stroke-linejoin:round;stroke-miterlimit:10;stroke-opacity:1;stroke-dasharray:none"
             id="path28" /><path
             d="m 175,124.168 1759.17,0"
             style="fill:none;stroke:#000000;stroke-width:5;stroke-linecap:butt;stroke-linejoin:round;stroke-miterlimit:10;stroke-opacity:1;stroke-dasharray:none"
             id="path30" /><path
             d="m 175,1512.5 1759.17,0"
             style="fill:none;stroke:#000000;stroke-width:5;stroke-linecap:butt;stroke-linejoin:round;stroke-miterlimit:10;stroke-opacity:1;stroke-dasharray:none"
             id="path32" /><path
             d="M 175,124.168 175,1512.5"
             style="fill:none;stroke:#000000;stroke-width:5;stroke-linecap:butt;stroke-linejoin:round;stroke-miterlimit:10;stroke-opacity:1;stroke-dasharray:none"
             id="path34" /><path
             d="m 1934.17,124.168 0,1388.332"
             style="fill:none;stroke:#000000;stroke-width:5;stroke-linecap:butt;stroke-linejoin:round;stroke-miterlimit:10;stroke-opacity:1;stroke-dasharray:none"
             id="path36" /><path
             d="m 175,124.168 1759.17,0"
             style="fill:none;stroke:#000000;stroke-width:5;stroke-linecap:butt;stroke-linejoin:round;stroke-miterlimit:10;stroke-opacity:1;stroke-dasharray:none"
             id="path38" /><path
             d="M 175,124.168 175,1512.5"
             style="fill:none;stroke:#000000;stroke-width:5;stroke-linecap:butt;stroke-linejoin:round;stroke-miterlimit:10;stroke-opacity:1;stroke-dasharray:none"
             id="path40" /><path
             d="m 175,124.168 0,18.332"
             style="fill:none;stroke:#000000;stroke-width:5;stroke-linecap:butt;stroke-linejoin:round;stroke-miterlimit:10;stroke-opacity:1;stroke-dasharray:none"
             id="path42" /><path
             d="m 175,1512.5 0,-17.5"
             style="fill:none;stroke:#000000;stroke-width:5;stroke-linecap:butt;stroke-linejoin:round;stroke-miterlimit:10;stroke-opacity:1;stroke-dasharray:none"
             id="path44" /><g
             id="g46"
             transform="scale(10,10)"><text
               transform="matrix(1,0,0,-1,14.75,0.333203)"
               id="text48"><tspan
                 style="font-size:10px;font-variant:normal;font-weight:normal;writing-mode:lr-tb;fill:#000000;fill-opacity:1;fill-rule:nonzero;stroke:none;font-family:Helvetica;-inkscape-font-specification:Helvetica"
                 x="0"
                 y="0"
                 id="tspan50">1</tspan></text>
</g><path
             d="m 614.168,124.168 0,18.332"
             style="fill:none;stroke:#000000;stroke-width:5;stroke-linecap:butt;stroke-linejoin:round;stroke-miterlimit:10;stroke-opacity:1;stroke-dasharray:none"
             id="path52" /><path
             d="m 614.168,1512.5 0,-17.5"
             style="fill:none;stroke:#000000;stroke-width:5;stroke-linecap:butt;stroke-linejoin:round;stroke-miterlimit:10;stroke-opacity:1;stroke-dasharray:none"
             id="path54" /><g
             id="g56"
             transform="scale(10,10)"><text
               transform="matrix(1,0,0,-1,58.6668,0.333203)"
               id="text58"><tspan
                 style="font-size:10px;font-variant:normal;font-weight:normal;writing-mode:lr-tb;fill:#000000;fill-opacity:1;fill-rule:nonzero;stroke:none;font-family:Helvetica;-inkscape-font-specification:Helvetica"
                 x="0"
                 y="0"
                 id="tspan60">2</tspan></text>
</g><path
             d="m 1054.17,124.168 0,18.332"
             style="fill:none;stroke:#000000;stroke-width:5;stroke-linecap:butt;stroke-linejoin:round;stroke-miterlimit:10;stroke-opacity:1;stroke-dasharray:none"
             id="path62" /><path
             d="m 1054.17,1512.5 0,-17.5"
             style="fill:none;stroke:#000000;stroke-width:5;stroke-linecap:butt;stroke-linejoin:round;stroke-miterlimit:10;stroke-opacity:1;stroke-dasharray:none"
             id="path64" /><g
             id="g66"
             transform="scale(10,10)"><text
               transform="matrix(1,0,0,-1,102.667,0.333203)"
               id="text68"><tspan
                 style="font-size:10px;font-variant:normal;font-weight:normal;writing-mode:lr-tb;fill:#000000;fill-opacity:1;fill-rule:nonzero;stroke:none;font-family:Helvetica;-inkscape-font-specification:Helvetica"
                 x="0"
                 y="0"
                 id="tspan70">3</tspan></text>
</g><path
             d="m 1494.17,124.168 0,18.332"
             style="fill:none;stroke:#000000;stroke-width:5;stroke-linecap:butt;stroke-linejoin:round;stroke-miterlimit:10;stroke-opacity:1;stroke-dasharray:none"
             id="path72" /><path
             d="m 1494.17,1512.5 0,-17.5"
             style="fill:none;stroke:#000000;stroke-width:5;stroke-linecap:butt;stroke-linejoin:round;stroke-miterlimit:10;stroke-opacity:1;stroke-dasharray:none"
             id="path74" /><g
             id="g76"
             transform="scale(10,10)"><text
               transform="matrix(1,0,0,-1,146.667,0.333203)"
               id="text78"><tspan
                 style="font-size:10px;font-variant:normal;font-weight:normal;writing-mode:lr-tb;fill:#000000;fill-opacity:1;fill-rule:nonzero;stroke:none;font-family:Helvetica;-inkscape-font-specification:Helvetica"
                 x="0"
                 y="0"
                 id="tspan80">4</tspan></text>
</g><path
             d="m 1934.17,124.168 0,18.332"
             style="fill:none;stroke:#000000;stroke-width:5;stroke-linecap:butt;stroke-linejoin:round;stroke-miterlimit:10;stroke-opacity:1;stroke-dasharray:none"
             id="path82" /><path
             d="m 1934.17,1512.5 0,-17.5"
             style="fill:none;stroke:#000000;stroke-width:5;stroke-linecap:butt;stroke-linejoin:round;stroke-miterlimit:10;stroke-opacity:1;stroke-dasharray:none"
             id="path84" /><g
             id="g86"
             transform="scale(10,10)"><text
               transform="matrix(1,0,0,-1,190.667,0.333203)"
               id="text88"><tspan
                 style="font-size:10px;font-variant:normal;font-weight:normal;writing-mode:lr-tb;fill:#000000;fill-opacity:1;fill-rule:nonzero;stroke:none;font-family:Helvetica;-inkscape-font-specification:Helvetica"
                 x="0"
                 y="0"
                 id="tspan90">5</tspan></text>
</g><path
             d="m 175,124.168 17.5,0"
             style="fill:none;stroke:#000000;stroke-width:5;stroke-linecap:butt;stroke-linejoin:round;stroke-miterlimit:10;stroke-opacity:1;stroke-dasharray:none"
             id="path92" /><path
             d="m 1934.17,124.168 -18.34,0"
             style="fill:none;stroke:#000000;stroke-width:5;stroke-linecap:butt;stroke-linejoin:round;stroke-miterlimit:10;stroke-opacity:1;stroke-dasharray:none"
             id="path94" /><g
             id="g96"
             transform="scale(10,10)"><text
               transform="matrix(1,0,0,-1,9.0832,8.75)"
               id="text98"><tspan
                 style="font-size:10px;font-variant:normal;font-weight:normal;writing-mode:lr-tb;fill:#000000;fill-opacity:1;fill-rule:nonzero;stroke:none;font-family:Helvetica;-inkscape-font-specification:Helvetica"
                 x="0"
                 y="0"
                 id="tspan100">0</tspan></text>
</g><path
             d="m 175,471.668 17.5,0"
             style="fill:none;stroke:#000000;stroke-width:5;stroke-linecap:butt;stroke-linejoin:round;stroke-miterlimit:10;stroke-opacity:1;stroke-dasharray:none"
             id="path102" /><path
             d="m 1934.17,471.668 -18.34,0"
             style="fill:none;stroke:#000000;stroke-width:5;stroke-linecap:butt;stroke-linejoin:round;stroke-miterlimit:10;stroke-opacity:1;stroke-dasharray:none"
             id="path104" /><g
             id="g106"
             transform="scale(10,10)"><text
               transform="matrix(1,0,0,-1,0.75,43.5)"
               id="text108"><tspan
                 style="font-size:10px;font-variant:normal;font-weight:normal;writing-mode:lr-tb;fill:#000000;fill-opacity:1;fill-rule:nonzero;stroke:none;font-family:Helvetica;-inkscape-font-specification:Helvetica"
                 x="0 5.5599999 8.3400002"
                 y="0"
                 sodipodi:role="line"
                 id="tspan110">0.1</tspan></text>
</g><path
             d="m 175,818.332 17.5,0"
             style="fill:none;stroke:#000000;stroke-width:5;stroke-linecap:butt;stroke-linejoin:round;stroke-miterlimit:10;stroke-opacity:1;stroke-dasharray:none"
             id="path112" /><path
             d="m 1934.17,818.332 -18.34,0"
             style="fill:none;stroke:#000000;stroke-width:5;stroke-linecap:butt;stroke-linejoin:round;stroke-miterlimit:10;stroke-opacity:1;stroke-dasharray:none"
             id="path114" /><g
             id="g116"
             transform="scale(10,10)"><text
               transform="matrix(1,0,0,-1,0.75,78.1668)"
               id="text118"><tspan
                 style="font-size:10px;font-variant:normal;font-weight:normal;writing-mode:lr-tb;fill:#000000;fill-opacity:1;fill-rule:nonzero;stroke:none;font-family:Helvetica;-inkscape-font-specification:Helvetica"
                 x="0 5.5599999 8.3400002"
                 y="0"
                 sodipodi:role="line"
                 id="tspan120">0.2</tspan></text>
</g><path
             d="m 175,1165.83 17.5,0"
             style="fill:none;stroke:#000000;stroke-width:5;stroke-linecap:butt;stroke-linejoin:round;stroke-miterlimit:10;stroke-opacity:1;stroke-dasharray:none"
             id="path122" /><path
             d="m 1934.17,1165.83 -18.34,0"
             style="fill:none;stroke:#000000;stroke-width:5;stroke-linecap:butt;stroke-linejoin:round;stroke-miterlimit:10;stroke-opacity:1;stroke-dasharray:none"
             id="path124" /><g
             id="g126"
             transform="scale(10,10)"><text
               transform="matrix(1,0,0,-1,0.75,112.917)"
               id="text128"><tspan
                 style="font-size:10px;font-variant:normal;font-weight:normal;writing-mode:lr-tb;fill:#000000;fill-opacity:1;fill-rule:nonzero;stroke:none;font-family:Helvetica;-inkscape-font-specification:Helvetica"
                 x="0 5.5599999 8.3400002"
                 y="0"
                 sodipodi:role="line"
                 id="tspan130">0.3</tspan></text>
</g><path
             d="m 175,1512.5 17.5,0"
             style="fill:none;stroke:#000000;stroke-width:5;stroke-linecap:butt;stroke-linejoin:round;stroke-miterlimit:10;stroke-opacity:1;stroke-dasharray:none"
             id="path132" /><path
             d="m 1934.17,1512.5 -18.34,0"
             style="fill:none;stroke:#000000;stroke-width:5;stroke-linecap:butt;stroke-linejoin:round;stroke-miterlimit:10;stroke-opacity:1;stroke-dasharray:none"
             id="path134" /><g
             id="g136"
             transform="scale(10,10)"><text
               transform="matrix(1,0,0,-1,0.75,147.583)"
               id="text138"><tspan
                 style="font-size:10px;font-variant:normal;font-weight:normal;writing-mode:lr-tb;fill:#000000;fill-opacity:1;fill-rule:nonzero;stroke:none;font-family:Helvetica;-inkscape-font-specification:Helvetica"
                 x="0 5.5599999 8.3400002"
                 y="0"
                 sodipodi:role="line"
                 id="tspan140">0.4</tspan></text>
</g><path
             d="m 175,124.168 1759.17,0"
             style="fill:none;stroke:#000000;stroke-width:5;stroke-linecap:butt;stroke-linejoin:round;stroke-miterlimit:10;stroke-opacity:1;stroke-dasharray:none"
             id="path142" /><path
             d="m 175,1512.5 1759.17,0"
             style="fill:none;stroke:#000000;stroke-width:5;stroke-linecap:butt;stroke-linejoin:round;stroke-miterlimit:10;stroke-opacity:1;stroke-dasharray:none"
             id="path144" /><path
             d="M 175,124.168 175,1512.5"
             style="fill:none;stroke:#000000;stroke-width:5;stroke-linecap:butt;stroke-linejoin:round;stroke-miterlimit:10;stroke-opacity:1;stroke-dasharray:none"
             id="path146" /><path
             d="m 1934.17,124.168 0,1388.332"
             style="fill:none;stroke:#000000;stroke-width:5;stroke-linecap:butt;stroke-linejoin:round;stroke-miterlimit:10;stroke-opacity:1;stroke-dasharray:none"
             id="path148" /></g></g><g
         id="g150"><g
           id="g152"
           clip-path="url(#clipPath154)"><path
             d="m 492.5,124.168 91.668,0 0,4.16406 -91.668,0 0,-4.16406 z"
             style="fill:#00008f;fill-opacity:1;fill-rule:evenodd;stroke:none"
             id="path158" /><path
             d="m 492.5,124.168 0,4.164 91.668,0 0,-4.164 -91.668,0"
             style="fill:none;stroke:#000000;stroke-width:5;stroke-linecap:butt;stroke-linejoin:round;stroke-miterlimit:10;stroke-opacity:1;stroke-dasharray:none"
             id="path160" /><path
             d="m 606.668,124.168 92.5,0 0,66.6641 -92.5,0 0,-66.6641 z"
             style="fill:#00008f;fill-opacity:1;fill-rule:evenodd;stroke:none"
             id="path162" /><path
             d="m 606.668,124.168 0,66.664 92.5,0 0,-66.664 -92.5,0"
             style="fill:none;stroke:#000000;stroke-width:5;stroke-linecap:butt;stroke-linejoin:round;stroke-miterlimit:10;stroke-opacity:1;stroke-dasharray:none"
             id="path164" /><path
             d="m 721.668,124.168 92.5,0 0,330.832 -92.5,0 0,-330.832 z"
             style="fill:#00008f;fill-opacity:1;fill-rule:evenodd;stroke:none"
             id="path166" /><path
             d="m 721.668,124.168 0,330.832 92.5,0 0,-330.832 -92.5,0"
             style="fill:none;stroke:#000000;stroke-width:5;stroke-linecap:butt;stroke-linejoin:round;stroke-miterlimit:10;stroke-opacity:1;stroke-dasharray:none"
             id="path168" /><path
             d="m 836.668,124.168 91.6641,0 0,769.164 -91.6641,0 0,-769.164 z"
             style="fill:#00008f;fill-opacity:1;fill-rule:evenodd;stroke:none"
             id="path170" /><path
             d="m 836.668,124.168 0,769.164 91.664,0 0,-769.164 -91.664,0"
             style="fill:none;stroke:#000000;stroke-width:5;stroke-linecap:butt;stroke-linejoin:round;stroke-miterlimit:10;stroke-opacity:1;stroke-dasharray:none"
             id="path172" /><path
             d="m 951.668,124.168 91.6641,0 0,1045.83 -91.6641,0 0,-1045.83 z"
             style="fill:#00008f;fill-opacity:1;fill-rule:evenodd;stroke:none"
             id="path174" /><path
             d="m 951.668,124.168 0,1045.832 91.662,0 0,-1045.832 -91.662,0"
             style="fill:none;stroke:#000000;stroke-width:5;stroke-linecap:butt;stroke-linejoin:round;stroke-miterlimit:10;stroke-opacity:1;stroke-dasharray:none"
             id="path176" /><path
             d="m 1066.67,124.168 91.6641,0 0,735 -91.6641,0 0,-735 z"
             style="fill:#00008f;fill-opacity:1;fill-rule:evenodd;stroke:none"
             id="path178" /><path
             d="m 1066.67,124.168 0,735 91.66,0 0,-735 -91.66,0"
             style="fill:none;stroke:#000000;stroke-width:5;stroke-linecap:butt;stroke-linejoin:round;stroke-miterlimit:10;stroke-opacity:1;stroke-dasharray:none"
             id="path180" /><path
             d="m 1181.67,124.168 91.6641,0 0,380 -91.6641,0 0,-380 z"
             style="fill:#00008f;fill-opacity:1;fill-rule:evenodd;stroke:none"
             id="path182" /><path
             d="m 1181.67,124.168 0,380 91.66,0 0,-380 -91.66,0"
             style="fill:none;stroke:#000000;stroke-width:5;stroke-linecap:butt;stroke-linejoin:round;stroke-miterlimit:10;stroke-opacity:1;stroke-dasharray:none"
             id="path184" /><path
             d="m 1295.83,124.168 92.5,0 0,109.164 -92.5,0 0,-109.164 z"
             style="fill:#00008f;fill-opacity:1;fill-rule:evenodd;stroke:none"
             id="path186" /><path
             d="m 1295.83,124.168 0,109.164 92.5,0 0,-109.164 -92.5,0"
             style="fill:none;stroke:#000000;stroke-width:5;stroke-linecap:butt;stroke-linejoin:round;stroke-miterlimit:10;stroke-opacity:1;stroke-dasharray:none"
             id="path188" /><path
             d="m 1410.83,124.168 92.5,0 0,28.332 -92.5,0 0,-28.332 z"
             style="fill:#00008f;fill-opacity:1;fill-rule:evenodd;stroke:none"
             id="path190" /><path
             d="m 1410.83,124.168 0,28.332 92.5,0 0,-28.332 -92.5,0"
             style="fill:none;stroke:#000000;stroke-width:5;stroke-linecap:butt;stroke-linejoin:round;stroke-miterlimit:10;stroke-opacity:1;stroke-dasharray:none"
             id="path192" /><path
             d="m 1525.83,124.168 91.668,0 0,5 -91.668,0 0,-5 z"
             style="fill:#00008f;fill-opacity:1;fill-rule:evenodd;stroke:none"
             id="path194" /><path
             d="m 1525.83,124.168 0,5 91.67,0 0,-5 -91.67,0"
             style="fill:none;stroke:#000000;stroke-width:5;stroke-linecap:butt;stroke-linejoin:round;stroke-miterlimit:10;stroke-opacity:1;stroke-dasharray:none"
             id="path196" /><path
             d="m 175,124.168 1759.17,0"
             style="fill:none;stroke:#000000;stroke-width:5;stroke-linecap:butt;stroke-linejoin:round;stroke-miterlimit:10;stroke-opacity:1;stroke-dasharray:none"
             id="path198" /></g></g></g><g
       id="g3053"
       transform="translate(-10.169492,54.237288)"><path
         id="path304"
         style="fill:#000000;fill-opacity:1;fill-rule:nonzero;stroke:none"
         d="m 59.400034,-59.919212 -0.004,0.016 -0.008,0.011 -0.004,0.012 -0.007,0.016 -0.012,0.027 -0.008,0.02 -0.012,0.019 -0.007,0.024 -0.012,0.019 -0.012,0.016 -0.008,0.015 -0.011,0.012 -0.008,0.016 -0.035,0.035 -0.012,0.008 -0.012,0.004 -0.012,0.011 -0.015,0.004 -0.016,0.008 -0.012,0 -0.019,0.008 -0.016,0 -0.019,0.004 -0.016,0 -0.019,0.004 -0.024,0 -0.023,0.004 -2.535,0 0,-0.446 0.343,0 c 1.09,0 1.121,-0.152 1.121,-0.664 l 0,-7.109 c 0,-0.379 0,-1.047 -1.464,-1.047 l 0,-0.442 c 0.5,0.012 1.195,0.043 1.664,0.043 0.468,0 1.168,-0.031 1.664,-0.043 l 0,0.442 c -1.465,0 -1.465,0.668 -1.465,1.047 l 0,7.66 0.015,0 3.422,-8.84 c 0.071,-0.184 0.141,-0.309 0.286,-0.309 0.156,0 0.199,0.114 0.253,0.27 l 3.5,8.992 0.012,0 0,-8.152 c 0,-0.516 -0.027,-0.668 -1.121,-0.668 l -0.34,0 0,-0.442 c 0.524,0.043 1.488,0.043 2.047,0.043 0.551,0 1.504,0 2.031,-0.043 l 0,0.442 -0.343,0 c -1.09,0 -1.122,0.152 -1.122,0.668 l 0,7.488 c 0,0.512 0.032,0.664 1.122,0.664 l 0.343,0 0,0.446 -2.402,0 c -0.371,0 -0.371,-0.016 -0.469,-0.274 l -3.117,-8 -3.082,7.961 z" /><path
         id="path306"
         style="fill:#000000;fill-opacity:1;fill-rule:nonzero;stroke:none"
         d="m 73.752034,-68.235212 0.007,-0.055 0.008,-0.051 0.012,-0.055 0.012,-0.05 0.011,-0.055 0.02,-0.051 0.016,-0.054 0.039,-0.102 0.023,-0.047 0.027,-0.051 0.024,-0.047 0.062,-0.093 0.032,-0.043 0.031,-0.039 0.039,-0.043 0.035,-0.039 0.086,-0.071 0.039,-0.035 0.043,-0.027 0.051,-0.031 0.047,-0.024 0.05,-0.023 0.051,-0.02 0.11,-0.031 0.054,-0.012 0.063,-0.008 0.058,-0.007 0.059,0 c 0.293,0 1.164,0.199 1.164,1.351 l 0,0.793 -0.355,0 0,-0.793 c 0,-0.824 -0.352,-0.91 -0.516,-0.91 -0.465,0 -0.524,0.637 -0.524,0.707 l 0,2.844 c 0,0.597 0,1.148 -0.507,1.676 -0.555,0.55 -1.266,0.781 -1.95,0.781 -1.164,0 -2.148,-0.664 -2.148,-1.606 0,-0.422 0.285,-0.668 0.656,-0.668 0.399,0 0.657,0.285 0.657,0.657 0,0.168 -0.075,0.636 -0.727,0.656 0.383,0.492 1.078,0.648 1.531,0.648 0.703,0 1.508,-0.551 1.508,-1.82 l 0,-2.242 c 0,-1.356 -1.02,-1.832 -1.664,-1.832 -0.691,0 -1.277,0.496 -1.277,1.207 0,0.777 0.597,1.961 2.941,2.043 l 0,0.301 c -0.723,-0.04 -1.715,-0.086 -2.609,-0.516 -1.071,-0.481 -1.426,-1.219 -1.426,-1.844 0,-1.148 1.379,-1.508 2.273,-1.508 0.942,0 1.594,0.571 1.864,1.239 z" /><path
         id="path308"
         style="fill:#000000;fill-opacity:1;fill-rule:nonzero;stroke:none"
         d="m 78.599034,-63.634212 2.035,0 0,0.442 -2.035,0 0,2.617 -0.355,0 c -0.016,-1.164 -0.446,-2.688 -1.832,-2.742 l 0,-0.317 1.207,0 0,-3.922 c 0,-1.746 1.32,-1.918 1.828,-1.918 1.012,0 1.41,1.008 1.41,1.918 l 0,0.813 -0.355,0 0,-0.781 c 0,-1.051 -0.43,-1.59 -0.954,-1.59 -0.949,0 -0.949,1.289 -0.949,1.535 l 0,3.945 z" /><path
         id="path310"
         style="fill:#000000;fill-opacity:1;fill-rule:nonzero;stroke:none"
         d="m 86.568034,-60.337212 0.023,0.023 0.024,0.02 0.066,0.066 0.008,0.016 0.012,0.012 0.015,0.023 0.008,0.016 0.012,0.015 0.008,0.012 0.015,0.031 0.008,0.012 0.004,0.016 0.008,0.015 0.004,0.012 0.008,0.02 0.004,0.011 0.003,0.016 0,0.016 0.012,0.046 0,0.032 c 0,0.254 -0.254,0.511 -0.515,0.511 -0.215,0 -0.368,-0.156 -0.426,-0.242 l -1.70296,-2.172 0.242,-0.257 2.16,1.73 z" /><path
         id="path312"
         style="fill:#000000;fill-opacity:1;fill-rule:nonzero;stroke:none"
         d="m 83.224034,-66.032212 0.016,0.301 c 0.082,2.117 1.277,2.468 1.762,2.468 1.464,0 1.605,-1.918 1.605,-2.468 l -3.367,0 -0.016,-0.301 3.969,0 c 0.312,0 0.352,0 0.352,0.301 0,1.402 -0.766,2.781 -2.543,2.781 -1.649,0 -2.957,-1.461 -2.957,-3.242 0,-1.903 1.492,-3.282 3.128,-3.282 1.735,0 2.372,1.578 2.372,1.848 0,0.141 -0.11,0.172 -0.184,0.172 -0.129,0 -0.156,-0.086 -0.188,-0.199 -0.492,-1.461 -1.773,-1.461 -1.918,-1.461 -0.71,0 -1.277,0.422 -1.601,0.949 -0.43,0.68 -0.43,1.621 -0.43,2.133 z" /><path
         id="path314"
         style="fill:#000000;fill-opacity:1;fill-rule:nonzero;stroke:none"
         d="m 90.318034,-64.595212 0,1.559 -1.973,-0.156 0,-0.442 c 0.993,0 1.11,-0.097 1.11,-0.793 l 0,-3.808 c 0,-0.637 -0.16,-0.637 -1.11,-0.637 l 0,-0.442 c 0.555,0.012 1.219,0.043 1.617,0.043 0.571,0 1.239,0 1.809,-0.043 l 0,0.442 -0.297,0 c -1.054,0 -1.086,0.152 -1.086,0.668 l 0,2.187 c 0,1.403 0.598,2.668 1.68,2.668 0.098,0 0.125,0 0.156,-0.011 -0.043,-0.012 -0.328,-0.184 -0.328,-0.551 0,-0.403 0.297,-0.613 0.613,-0.613 0.254,0 0.614,0.168 0.614,0.625 0,0.453 -0.442,0.863 -1.055,0.863 -1.039,0 -1.551,-0.949 -1.75,-1.559 z" /><path
         id="path316"
         style="fill:#000000;fill-opacity:1;fill-rule:nonzero;stroke:none"
         d="m 95.091034,-64.427212 0,-3.808 c 0,-0.637 -0.16,-0.637 -1.109,-0.637 l 0,-0.442 c 0.496,0.012 1.219,0.043 1.602,0.043 0.371,0 1.109,-0.031 1.589,-0.043 l 0,0.442 c -0.949,0 -1.101,0 -1.101,0.637 l 0,2.613 c 0,1.48 1.008,2.273 1.914,2.273 0.898,0 1.051,-0.765 1.051,-1.578 l 0,-3.308 c 0,-0.637 -0.153,-0.637 -1.11,-0.637 l 0,-0.442 c 0.5,0.012 1.227,0.043 1.61,0.043 0.371,0 1.104996,-0.031 1.592996,-0.043 l 0,0.442 c -0.738,0 -1.097,0 -1.109,0.426 l 0,2.715 c 0,1.218 0,1.664 -0.444996,2.171 -0.192,0.243 -0.668,0.524 -1.485,0.524 -1.043,0 -1.711,-0.61 -2.105,-1.488 l 0,1.488 -2.004,-0.156 0,-0.442 c 0.992,0 1.109,-0.097 1.109,-0.793 z" /><path
         id="path318"
         style="fill:#000000;fill-opacity:1;fill-rule:nonzero;stroke:none"
         d="m 108.67303,-63.036212 -1.988,-0.156 0,-0.442 c 0.918,0 1.051,-0.086 1.051,-0.777 l 0,-3.824 c 0,-0.637 -0.156,-0.637 -1.109,-0.637 l 0,-0.442 c 0.453,0.012 1.218,0.043 1.562,0.043 0.5,0 0.992,-0.031 1.481,-0.043 l 0,0.442 c -0.942,0 -0.997,0.07 -0.997,0.621 l 0,5.215 z" /><path
         id="path320"
         style="fill:#000000;fill-opacity:1;fill-rule:nonzero;stroke:none"
         d="m 108.72803,-60.560212 0,0.039 -0.004,0.043 -0.004,0.039 -0.015,0.079 -0.012,0.035 -0.012,0.039 -0.015,0.035 -0.016,0.031 -0.016,0.035 -0.019,0.032 -0.02,0.027 -0.019,0.031 -0.024,0.028 -0.078,0.078 -0.027,0.023 -0.027,0.02 -0.063,0.039 -0.062,0.031 -0.036,0.016 -0.031,0.011 -0.035,0.012 -0.07,0.016 -0.035,0.004 -0.04,0.003 -0.035,0.004 -0.039,0.004 c -0.441,0 -0.75,-0.386 -0.75,-0.754 0,-0.386 0.309,-0.754 0.75,-0.754 0.399,0 0.754,0.297 0.754,0.754 z" /><path
         id="path322"
         style="fill:#000000;fill-opacity:1;fill-rule:nonzero;stroke:none"
         d="m 111.65803,-64.427212 0,-3.808 c 0,-0.637 -0.156,-0.637 -1.11,-0.637 l 0,-0.442 c 0.5,0.012 1.223,0.043 1.602,0.043 0.371,0 1.113,-0.031 1.594,-0.043 l 0,0.442 c -0.949,0 -1.106,0 -1.106,0.637 l 0,2.613 c 0,1.48 1.008,2.273 1.914,2.273 0.899,0 1.055,-0.765 1.055,-1.578 l 0,-3.308 c 0,-0.637 -0.156,-0.637 -1.109,-0.637 l 0,-0.442 c 0.5,0.012 1.226,0.043 1.609,0.043 0.371,0 1.105,-0.031 1.59,-0.043 l 0,0.442 c -0.742,0 -1.098,0 -1.109,0.426 l 0,2.715 c 0,1.218 0,1.664 -0.442,2.171 -0.199,0.243 -0.668,0.524 -1.488,0.524 -1.039,0 -1.707,-0.61 -2.106,-1.488 l 0,1.488 -2.004,-0.156 0,-0.442 c 0.993,0 1.11,-0.097 1.11,-0.793 z" /><path
         id="path324"
         style="fill:#000000;fill-opacity:1;fill-rule:nonzero;stroke:none"
         d="m 120.04803,-63.634212 2.036,0 0,0.442 -2.036,0 0,2.617 -0.355,0 c -0.012,-1.164 -0.441,-2.688 -1.832,-2.742 l 0,-0.317 1.207,0 0,-3.922 c 0,-1.746 1.32,-1.918 1.832,-1.918 1.008,0 1.41,1.008 1.41,1.918 l 0,0.813 -0.355,0 0,-0.781 c 0,-1.051 -0.43,-1.59 -0.957,-1.59 -0.95,0 -0.95,1.289 -0.95,1.535 l 0,3.945 z" /><path
         id="path326"
         style="fill:#000000;fill-opacity:1;fill-rule:nonzero;stroke:none"
         d="m 124.67703,-66.032212 0.016,0.301 c 0.082,2.117 1.277,2.468 1.762,2.468 1.465,0 1.605,-1.918 1.605,-2.468 l -3.367,0 -0.016,-0.301 3.965,0 c 0.317,0 0.356,0 0.356,0.301 0,1.402 -0.77,2.781 -2.543,2.781 -1.649,0 -2.957,-1.461 -2.957,-3.242 0,-1.903 1.492,-3.282 3.129,-3.282 1.73,0 2.371,1.578 2.371,1.848 0,0.141 -0.114,0.172 -0.184,0.172 -0.129,0 -0.156,-0.086 -0.187,-0.199 -0.493,-1.461 -1.774,-1.461 -1.918,-1.461 -0.711,0 -1.278,0.422 -1.602,0.949 -0.43,0.68 -0.43,1.621 -0.43,2.133 z" /><path
         id="path328"
         style="fill:#000000;fill-opacity:1;fill-rule:nonzero;stroke:none"
         d="m 130.96203,-64.427212 0,-3.808 c 0,-0.637 -0.156,-0.637 -1.109,-0.637 l 0,-0.442 c 0.5,0.012 1.219,0.043 1.602,0.043 0.371,0 1.109,-0.031 1.593,-0.043 l 0,0.442 c -0.949,0 -1.105,0 -1.105,0.637 l 0,2.613 c 0,1.48 1.008,2.273 1.914,2.273 0.898,0 1.055,-0.765 1.055,-1.578 l 0,-3.308 c 0,-0.637 -0.157,-0.637 -1.11,-0.637 l 0,-0.442 c 0.496,0.012 1.227,0.043 1.606,0.043 0.371,0 1.109,-0.031 1.594,-0.043 l 0,0.442 c -0.739,0 -1.094,0 -1.11,0.426 l 0,2.715 c 0,1.218 0,1.664 -0.441,2.171 -0.196,0.243 -0.668,0.524 -1.489,0.524 -1.039,0 -1.707,-0.61 -2.105,-1.488 l 0,1.488 -2.004,-0.156 0,-0.442 c 0.992,0 1.109,-0.097 1.109,-0.793 z" /><path
         id="path330"
         style="fill:#000000;fill-opacity:1;fill-rule:nonzero;stroke:none"
         d="m 140.25903,-66.556212 0.032,-0.008 0.039,-0.003 0.039,-0.008 0.043,-0.012 0.101,-0.023 0.11,-0.032 0.117,-0.039 0.062,-0.023 0.063,-0.02 0.066,-0.031 0.063,-0.027 0.062,-0.032 0.063,-0.035 0.117,-0.078 0.062,-0.043 0.055,-0.047 0.055,-0.05 0.051,-0.055 0.05,-0.059 0.043,-0.058 0.043,-0.063 0.016,-0.035 0.019,-0.031 0.016,-0.039 0.016,-0.035 0.015,-0.039 0.012,-0.036 0.012,-0.043 0.011,-0.039 0.008,-0.043 0.004,-0.043 0.008,-0.043 0.004,-0.043 0.004,-0.05 0,-0.047 c 0,-0.719 -0.5,-1.289 -1.606,-1.289 -1.191,0 -1.707,0.808 -1.976,2.015 -0.039,0.184 -0.055,0.243 -0.199,0.243 -0.188,0 -0.188,-0.098 -0.188,-0.356 l 0,-1.879 c 0,-0.238 0,-0.34 0.156,-0.34 0.075,0 0.086,0.016 0.36,0.285 0.027,0.032 0.027,0.055 0.285,0.329 0.625,-0.598 1.266,-0.614 1.562,-0.614 1.633,0 2.289,0.957 2.289,1.977 0,0.754 -0.429,1.18 -0.597,1.351 -0.469,0.454 -1.028,0.571 -1.625,0.68 -0.793,0.16 -1.746,0.344 -1.746,1.168 0,0.496 0.371,1.078 1.59,1.078 1.566,0 1.636,-1.277 1.664,-1.719 0.015,-0.128 0.14,-0.128 0.175,-0.128 0.18,0 0.18,0.07 0.18,0.343 l 0,1.434 c 0,0.242 0,0.34 -0.156,0.34 -0.07,0 -0.098,0 -0.285,-0.168 -0.039,-0.063 -0.184,-0.184 -0.239,-0.231 -0.539,0.399 -1.125,0.399 -1.339,0.399 -1.731,0 -2.274,-0.949 -2.274,-1.746 0,-0.496 0.231,-0.895 0.613,-1.211 0.454,-0.367 0.856,-0.453 1.875,-0.649 z" /><path
         id="path332"
         style="fill:#000000;fill-opacity:1;fill-rule:nonzero;stroke:none"
         d="m 145.43103,-63.036212 -1.984,-0.156 0,-0.442 c 0.922,0 1.047,-0.086 1.047,-0.777 l 0,-3.824 c 0,-0.637 -0.153,-0.637 -1.11,-0.637 l 0,-0.442 c 0.457,0.012 1.227,0.043 1.567,0.043 0.5,0 0.992,-0.031 1.48,-0.043 l 0,0.442 c -0.941,0 -1,0.07 -1,0.621 l 0,5.215 z" /><path
         id="path334"
         style="fill:#000000;fill-opacity:1;fill-rule:nonzero;stroke:none"
         d="m 145.49003,-60.560212 0,0.039 -0.004,0.043 -0.004,0.039 -0.016,0.079 -0.011,0.035 -0.012,0.039 -0.016,0.035 -0.011,0.031 -0.02,0.035 -0.019,0.032 -0.02,0.027 -0.023,0.031 -0.047,0.055 -0.051,0.051 -0.027,0.023 -0.028,0.02 -0.062,0.039 -0.094,0.047 -0.07,0.023 -0.071,0.016 -0.039,0.004 -0.031,0.003 -0.039,0.004 -0.035,0.004 c -0.445,0 -0.754,-0.386 -0.754,-0.754 0,-0.386 0.309,-0.754 0.754,-0.754 0.394,0 0.75,0.297 0.75,0.754 z" /><path
         id="path336"
         style="fill:#000000;fill-opacity:1;fill-rule:nonzero;stroke:none"
         d="m 149.31803,-63.634212 2.031,0 0,0.442 -2.031,0 0,2.617 -0.359,0 c -0.012,-1.164 -0.442,-2.688 -1.832,-2.742 l 0,-0.317 1.207,0 0,-3.922 c 0,-1.746 1.32,-1.918 1.832,-1.918 1.007,0 1.41,1.008 1.41,1.918 l 0,0.813 -0.356,0 0,-0.781 c 0,-1.051 -0.429,-1.59 -0.957,-1.59 -0.945,0 -0.945,1.289 -0.945,1.535 l 0,3.945 z" /><path
         id="path338"
         style="fill:#000000;fill-opacity:1;fill-rule:nonzero;stroke:none"
         d="m 157.85303,-64.544212 0.016,0.043 0.015,0.039 0.024,0.043 0.015,0.035 0.059,0.106 0.023,0.031 0.043,0.062 0.043,0.059 0.047,0.055 0.043,0.05 0.047,0.047 0.047,0.039 0.051,0.039 0.047,0.036 0.05,0.031 0.047,0.027 0.051,0.028 0.043,0.023 0.051,0.02 0.047,0.019 0.047,0.012 0.043,0.015 0.046,0.012 0.086,0.016 0.039,0.008 0.039,0.003 0.036,0.008 0.039,0.004 0.14,0 0,0.442 c -0.332,-0.028 -0.742,-0.039 -1.07,-0.039 -0.254,0 -0.926,0.027 -1.238,0.039 l 0,-0.442 c 0.445,-0.012 0.668,-0.254 0.668,-0.609 0,-0.145 -0.012,-0.168 -0.082,-0.34 l -1.434,-3.496 -1.582,3.82 c -0.055,0.145 -0.082,0.203 -0.082,0.262 0,0.363 0.523,0.363 0.793,0.363 l 0,0.442 c -0.363,-0.012 -1.305,-0.039 -1.547,-0.039 -0.383,0 -0.953,0.011 -1.375,0.039 l 0,-0.442 c 0.68,0 0.949,0 1.149,-0.492 l 2.128,-5.188 c -0.07,-0.183 -0.265,-0.656 -0.355,-0.839 -0.312,-0.782 -0.711,-1.766 -1.617,-1.766 -0.071,0 -0.399,0 -0.672,0.258 0.445,0.058 0.555,0.371 0.555,0.597 0,0.372 -0.27,0.598 -0.594,0.598 -0.285,0 -0.594,-0.187 -0.594,-0.609 0,-0.641 0.594,-1.156 1.305,-1.156 0.894,0 1.476,0.812 1.816,1.625 l 2.504,6.062 z" /><path
         id="path340"
         style="fill:#000000;fill-opacity:1;fill-rule:nonzero;stroke:none"
         d="m 168.94703,-72.724212 0,0.012 -0.004,0.004 0,0.008 -0.004,0.008 0,0.007 -0.004,0.008 -0.008,0.008 0,0.012 -0.007,0.004 -0.004,0.007 -0.008,0.008 -0.004,0.012 -0.02,0.02 0,0.003 -0.031,0.032 -0.004,0.007 -0.008,0.004 -0.007,0.016 -0.012,0.008 -0.008,0.008 -0.004,0.007 -0.043,0.043 -0.008,0.012 -0.011,0.008 -0.024,0.023 -0.008,0.012 -0.011,0.008 c -1.774,1.793 -2.231,4.476 -2.231,6.652 0,2.473 0.539,4.949 2.289,6.719 0.184,0.176 0.184,0.203 0.184,0.246 0,0.102 -0.055,0.141 -0.141,0.141 -0.144,0 -1.422,-0.965 -2.258,-2.77 -0.73,-1.562 -0.898,-3.14 -0.898,-4.336 0,-1.109 0.156,-2.824 0.938,-4.433 0.851,-1.75 2.074,-2.672 2.218,-2.672 0.086,0 0.141,0.043 0.141,0.144 z" /><path
         id="path342"
         style="fill:#000000;fill-opacity:1;fill-rule:nonzero;stroke:none"
         d="m 174.82603,-65.165212 0.054,-0.141 0.055,-0.148 0.113,-0.297 0.114,-0.309 0.113,-0.316 0.109,-0.313 0.11,-0.308 0.105,-0.309 0.11,-0.297 0.046,-0.14 0.051,-0.141 0.047,-0.133 0.047,-0.129 0.047,-0.125 0.043,-0.121 0.043,-0.109 0.039,-0.105 0.035,-0.102 0.039,-0.09 0.035,-0.082 0.031,-0.074 0.032,-0.067 0.027,-0.058 0.027,-0.047 0.024,-0.031 c 0.223,-0.317 0.367,-0.317 0.75,-0.317 l 0.312,0 c 0.141,0.016 0.157,0.102 0.157,0.145 0,0.039 -0.028,0.07 -0.071,0.129 -0.14,0.156 -0.23,0.367 -0.324,0.652 l -2.898,8.086 c -0.301,0.824 -1.071,1.012 -1.735,1.012 -0.074,0 -0.261,0 -0.261,-0.156 0,-0.118 0.117,-0.145 0.132,-0.145 0.465,-0.086 0.563,-0.168 0.922,-1.133 l 1.375,-3.867 -3.922,-3.898 c -0.168,-0.168 -0.254,-0.254 -0.254,-0.438 0,-0.242 0.2,-0.41 0.43,-0.41 0.227,0 0.352,0.156 0.469,0.297 l 3.42212,4.035 z" /><path
         id="path344"
         style="fill:#000000;fill-opacity:1;fill-rule:nonzero;stroke:none"
         d="m 182.14203,-65.763212 0,0.106 -0.004,0.109 0,0.113 -0.004,0.118 -0.011,0.238 -0.016,0.25 -0.023,0.262 -0.032,0.273 -0.039,0.277 -0.047,0.286 -0.054,0.292 -0.067,0.293 -0.078,0.301 -0.086,0.301 -0.097,0.305 -0.114,0.304 -0.125,0.305 -0.066,0.152 -0.074,0.149 c -0.852,1.746 -2.071,2.672 -2.215,2.672 -0.082,0 -0.141,-0.055 -0.141,-0.141 0,-0.043 0,-0.07 0.266,-0.328 1.394,-1.402 2.207,-3.664 2.207,-6.637 0,-2.429 -0.527,-4.929 -2.293,-6.722 -0.18,-0.168 -0.18,-0.2 -0.18,-0.239 0,-0.086 0.059,-0.144 0.141,-0.144 0.144,0 1.418,0.969 2.258,2.769 0.726,1.563 0.894,3.141 0.894,4.336 z" /></g><g
       id="g3129"
       transform="translate(164.0678,-29.152542)"><path
         id="path346"
         style="fill:#000000;fill-opacity:1;fill-rule:nonzero;stroke:none"
         d="m -174.70532,37.429178 -0.414,-0.04704 -4.325,0 c -0.531,0 -0.64,0.03504 -0.64,0.781 l 0,1.426 c 0,2.547 1.695,2.547 2.48,2.547 0.754,0 2.485,0 2.485,-2.547 l 0,-2.207 0.414,0.04704 0,2.707 c 0,1.918 -1.297,3.652 -2.899,3.652 -1.566,0 -2.98,-1.586 -2.98,-3.781 l 0,-5.652 0.5,0 0,0.382 c 0,1.235 0.172,1.266 0.75,1.266 l 8.441,0 c 0.578,0 0.75,-0.03096 0.75,-1.266 l 0,-0.382 0.5,0 c -0.051,0.558 -0.051,1.742 -0.051,2.351 0,0.609 0,1.813 0.051,2.371 l -0.5,0 0,-0.383 c 0,-1.234 -0.172,-1.265 -0.75,-1.265 l -3.812,0 z" /><path
         id="path348"
         style="fill:#000000;fill-opacity:1;fill-rule:nonzero;stroke:none"
         d="m -173.06932,51.792178 -0.191,-0.004 -0.188,-0.01496 -0.187,-0.02 -0.184,-0.03496 -0.179,-0.03904 -0.176,-0.05096 -0.176,-0.05496 -0.172,-0.062 -0.16,-0.07096 -0.164,-0.082 -0.156,-0.082 -0.153,-0.093 -0.148,-0.098 -0.141,-0.109 -0.136,-0.11 -0.129,-0.117 -0.125,-0.125 -0.121,-0.129 -0.11,-0.133 -0.105,-0.14 -0.098,-0.141 -0.09,-0.148 -0.086,-0.157 -0.074,-0.156 -0.07,-0.16 -0.059,-0.164 -0.051,-0.168 -0.039,-0.172 -0.035,-0.172 -0.023,-0.172 -0.016,-0.179 -0.004,-0.184 0.352,-0.016 c 0,0.70684 0.351,1.39484 1.039,1.81284 0.687,0.414 1.617,0.414 2.226,0.414 0.579,0 1.438,0 2.145,-0.352 0.723,-0.351 1.184,-1.054 1.184,-1.859 0,-0.687 -0.336,-1.391 -1.071,-1.82 -0.707,-0.403 -1.679,-0.403 -2.258,-0.403 -0.624,0 -1.488,0 -2.195,0.379 -0.734,0.438 -1.07,1.188 -1.07,1.828 l -0.352,0.016 c 0,-1.996 1.743,-3.555 3.746,-3.555 2.067,0 3.602,1.664 3.602,3.539 0,1.942 -1.566,3.559 -3.602,3.559 z" /><path
         id="path350"
         style="fill:#000000;fill-opacity:1;fill-rule:nonzero;stroke:none"
         d="m -172.75232,55.601178 0.008,0.03496 0.004,0.04304 0.011,0.04304 0.012,0.05096 0.012,0.054 0.015,0.05896 0.016,0.062 0.019,0.05896 0.02,0.07 0.047,0.133 0.027,0.07 0.031,0.07104 0.032,0.074 0.035,0.07 0.039,0.074 0.047,0.06696 0.043,0.066 0.047,0.06704 0.054,0.066 0.055,0.06304 0.063,0.054 0.066,0.05496 0.066,0.05096 0.071,0.04704 0.156,0.078 0.047,0.01504 0.039,0.012 0.047,0.012 0.047,0.01496 0.093,0.016 0.051,0.008 0.051,0.004 0.055,0.004 0.05,0 c 0.813,0 1.457,-0.563 1.457,-1.809 0,-1.344 -0.914,-1.926 -2.273,-2.23 -0.207,-0.04304 -0.273,-0.05896 -0.273,-0.223 0,-0.211 0.113,-0.211 0.402,-0.211 l 2.113,0 c 0.27,0 0.383,0 0.383,0.176 0,0.082 -0.016,0.097 -0.32,0.402 -0.032,0.03096 -0.063,0.03096 -0.368,0.324 0.672,0.703 0.688,1.426 0.688,1.762 0,1.836 -1.074,2.578 -2.223,2.578 -0.851,0 -1.332,-0.484 -1.523,-0.672 -0.512,-0.527 -0.645,-1.16 -0.77,-1.832 -0.175,-0.89 -0.386,-1.969 -1.316,-1.969 -0.559,0 -1.215,0.418 -1.215,1.793 0,1.766 1.442,1.848 1.938,1.875 0.148,0.02 0.148,0.161 0.148,0.196 0,0.207 -0.082,0.207 -0.387,0.207 l -1.617,0 c -0.273,0 -0.383,0 -0.383,-0.176 0,-0.082 0,-0.109 0.188,-0.324 0.07,-0.04296 0.207,-0.203 0.258,-0.27 -0.446,-0.605 -0.446,-1.265 -0.446,-1.508 0,-1.953 1.071,-2.562 1.969,-2.562 0.559,0 1.008,0.258 1.359,0.687 0.418,0.516 0.512,0.965 0.735,2.118 z" /><path
         id="path352"
         style="fill:#000000;fill-opacity:1;fill-rule:nonzero;stroke:none"
         d="m -176.04532,61.370178 0,2.289 -0.5,0 0,-2.289 -2.949,0 0,-0.402 c 1.312,-0.016 3.031,-0.496 3.089,-2.067 l 0.36,0 0,1.364 4.418,0 c 1.969,0 2.16,1.484 2.16,2.062 0,1.137 -1.133,1.59 -2.16,1.59 l -0.914,0 0,-0.402 0.879,0 c 1.187,0 1.793,-0.481 1.793,-1.078 0,-1.067 -1.453,-1.067 -1.727,-1.067 l -4.449,0 z" /><path
         id="path354"
         style="fill:#000000;fill-opacity:1;fill-rule:nonzero;stroke:none"
         d="m -173.34232,66.585178 -0.34,0.016 c -2.383,0.093 -2.781,1.441 -2.781,1.988 0,1.648 2.16,1.809 2.781,1.809 l 0,-3.797 0.34,-0.016 0,4.473 c 0,0.351 0,0.394 -0.34,0.394 -1.582,0 -3.133,-0.863 -3.133,-2.863 0,-1.859 1.645,-3.336 3.653,-3.336 2.144,0 3.695,1.684 3.695,3.527 0,1.957 -1.777,2.672 -2.078,2.672 -0.16,0 -0.195,-0.125 -0.195,-0.207 0,-0.144 0.093,-0.176 0.222,-0.211 1.649,-0.554 1.649,-1.996 1.649,-2.156 0,-0.805 -0.477,-1.445 -1.071,-1.809 -0.765,-0.484 -1.828,-0.484 -2.402,-0.484 z" /><path
         id="path356"
         style="fill:#000000;fill-opacity:1;fill-rule:nonzero;stroke:none"
         d="m -174.96332,74.577178 -1.754,0 0.172,-2.222 0.5,0 c 0,1.117 0.109,1.25 0.89,1.25 l 4.297,0 c 0.715,0 0.715,-0.18 0.715,-1.25 l 0.5,0 c -0.015,0.625 -0.051,1.375 -0.051,1.828 0,0.636 0,1.386 0.051,2.031 l -0.5,0 0,-0.336 c 0,-1.184 -0.172,-1.219 -0.75,-1.219 l -2.465,0 c -1.582,0 -3.011,0.672 -3.011,1.891 0,0.109 0,0.144 0.015,0.18 0.016,-0.05096 0.207,-0.375 0.621,-0.375 0.453,0 0.688,0.339 0.688,0.695 0,0.285 -0.188,0.687 -0.699,0.687 -0.516,0 -0.973,-0.496 -0.973,-1.187 0,-1.168 1.066,-1.746 1.754,-1.973 z" /><path
         id="path358"
         style="fill:#000000;fill-opacity:1;fill-rule:nonzero;stroke:none"
         d="m -176.71732,81.026178 0.172,-2.242 0.5,0 c 0,1.039 0.094,1.188 0.875,1.188 l 4.312,0 c 0.715,0 0.715,-0.176 0.715,-1.25 l 0.5,0 c -0.015,0.511 -0.051,1.375 -0.051,1.761 0,0.563 0.036,1.118 0.051,1.668 l -0.5,0 c 0,-1.058 -0.078,-1.125 -0.699,-1.125 l -5.875,0 z" /><path
         id="path360"
         style="fill:#000000;fill-opacity:1;fill-rule:nonzero;stroke:none"
         d="m -179.51032,81.093178 -0.043,0 -0.051,-0.004 -0.043,-0.008 -0.047,-0.008 -0.039,-0.01104 -0.043,-0.008 -0.043,-0.016 -0.039,-0.01904 -0.039,-0.016 -0.035,-0.02 -0.039,-0.01904 -0.094,-0.07 -0.058,-0.05896 -0.055,-0.062 -0.047,-0.06296 -0.039,-0.07 -0.016,-0.03896 -0.015,-0.036 -0.016,-0.03896 -0.023,-0.078 -0.008,-0.04304 -0.008,-0.03896 0,-0.03896 -0.008,-0.086 c 0,-0.496 0.434,-0.847 0.848,-0.847 0.434,0 0.848,0.351 0.848,0.847 0,0.449 -0.332,0.852 -0.848,0.852 z" /><path
         id="path362"
         style="fill:#000000;fill-opacity:1;fill-rule:nonzero;stroke:none"
         d="m -173.06932,90.175178 -0.191,-0.004 -0.188,-0.016 -0.187,-0.02304 -0.184,-0.03096 -0.179,-0.03896 -0.176,-0.05096 -0.176,-0.05504 -0.172,-0.062 -0.16,-0.07096 -0.164,-0.082 -0.156,-0.086 -0.153,-0.09 -0.148,-0.097 -0.141,-0.11 -0.136,-0.109 -0.129,-0.121 -0.125,-0.121 -0.121,-0.129 -0.11,-0.137 -0.105,-0.136 -0.098,-0.145 -0.09,-0.148 -0.086,-0.153 -0.074,-0.156 -0.07,-0.16 -0.059,-0.164 -0.051,-0.168 -0.039,-0.172 -0.035,-0.172 -0.023,-0.176 -0.016,-0.176 -0.004,-0.183 0.352,-0.016 c 0,0.707 0.351,1.395 1.039,1.809 0.687,0.418 1.617,0.418 2.226,0.418 0.579,0 1.438,0 2.145,-0.352 0.723,-0.351 1.184,-1.054 1.184,-1.859 0,-0.692 -0.336,-1.391 -1.071,-1.824 -0.707,-0.403 -1.679,-0.403 -2.258,-0.403 -0.624,0 -1.488,0 -2.195,0.383 -0.734,0.438 -1.07,1.188 -1.07,1.828 l -0.352,0.016 c 0,-1.996 1.743,-3.559 3.746,-3.559 2.067,0 3.602,1.672 3.602,3.543 0,1.942 -1.566,3.559 -3.602,3.559 z" /><path
         id="path364"
         style="fill:#000000;fill-opacity:1;fill-rule:nonzero;stroke:none"
         d="m -174.96332,93.323178 -1.754,0 0.172,-2.222 0.5,0 c 0,1.117 0.109,1.25 0.89,1.25 l 4.297,0 c 0.715,0 0.715,-0.18 0.715,-1.25 l 0.5,0 c -0.015,0.625 -0.051,1.375 -0.051,1.828 0,0.636 0,1.386 0.051,2.031 l -0.5,0 0,-0.336 c 0,-1.184 -0.172,-1.219 -0.75,-1.219 l -2.465,0 c -1.582,0 -3.011,0.672 -3.011,1.891 0,0.113 0,0.144 0.015,0.18 0.016,-0.05096 0.207,-0.375 0.621,-0.375 0.453,0 0.688,0.339 0.688,0.695 0,0.285 -0.188,0.687 -0.699,0.687 -0.516,0 -0.973,-0.496 -0.973,-1.187 0,-1.168 1.066,-1.742 1.754,-1.973 z" /><path
         id="path366"
         style="fill:#000000;fill-opacity:1;fill-rule:nonzero;stroke:none"
         d="m -175.66632,105.01518 -1.051,0 0.172,-2.305 0.5,0 c 0,1.145 0.094,1.25 0.797,1.25 l 7.496,0 c 0.722,0 0.722,-0.176 0.722,-1.25 l 0.497,0 c -0.02,0.547 -0.047,1.379 -0.047,1.797 0,0.43 0.027,1.25 0.047,1.812 l -0.497,0 c 0,-1.074 0,-1.25 -0.722,-1.25 l -2.836,0 -0.207,0.223 c -0.34,-0.223 -0.356,-0.223 -0.672,-0.223 l -3.578,0 c -0.813,0.461 -1.277,1.25 -1.277,2.063 0,1.172 1.41,2.152 3.218,2.152 1.942,0 3.285,-1.125 3.285,-2.312 0,-0.637 -0.324,-1.246 -0.976,-1.68 l 0.207,-0.223 c 0.258,0.079 1.121,0.75 1.121,1.965 0,1.91 -1.566,3.574 -3.637,3.574 -2.035,0 -3.613,-1.554 -3.613,-3.343 0,-1.25 0.699,-1.926 1.051,-2.25 z" /><path
         id="path368"
         style="fill:#000000;fill-opacity:1;fill-rule:nonzero;stroke:none"
         d="m -174.96332,113.84718 -1.754,0 0.172,-2.223 0.5,0 c 0,1.117 0.109,1.25 0.89,1.25 l 4.297,0 c 0.715,0 0.715,-0.176 0.715,-1.25 l 0.5,0 c -0.015,0.625 -0.051,1.375 -0.051,1.828 0,0.637 0,1.391 0.051,2.031 l -0.5,0 0,-0.332 c 0,-1.187 -0.172,-1.222 -0.75,-1.222 l -2.465,0 c -1.582,0 -3.011,0.676 -3.011,1.894 0,0.11 0,0.141 0.015,0.176 0.016,-0.051 0.207,-0.375 0.621,-0.375 0.453,0 0.688,0.34 0.688,0.695 0,0.286 -0.188,0.688 -0.699,0.688 -0.516,0 -0.973,-0.496 -0.973,-1.184 0,-1.172 1.066,-1.75 1.754,-1.976 z" /><path
         id="path370"
         style="fill:#000000;fill-opacity:1;fill-rule:nonzero;stroke:none"
         d="m -173.06932,125.01118 -0.191,-0.008 -0.188,-0.012 -0.187,-0.023 -0.184,-0.031 -0.179,-0.039 -0.176,-0.047 -0.176,-0.059 -0.172,-0.066 -0.16,-0.071 -0.164,-0.074 -0.156,-0.09 -0.153,-0.093 -0.148,-0.098 -0.141,-0.106 -0.136,-0.109 -0.129,-0.121 -0.125,-0.121 -0.121,-0.129 -0.11,-0.133 -0.105,-0.141 -0.098,-0.144 -0.09,-0.148 -0.086,-0.153 -0.074,-0.156 -0.07,-0.16 -0.059,-0.164 -0.051,-0.168 -0.039,-0.168 -0.035,-0.176 -0.023,-0.176 -0.016,-0.179 -0.004,-0.18 0.352,-0.016 c 0,0.703 0.351,1.391 1.039,1.809 0.687,0.414 1.617,0.414 2.226,0.414 0.579,0 1.438,0 2.145,-0.348 0.723,-0.351 1.184,-1.054 1.184,-1.859 0,-0.688 -0.336,-1.395 -1.071,-1.824 -0.707,-0.403 -1.679,-0.403 -2.258,-0.403 -0.624,0 -1.488,0 -2.195,0.383 -0.734,0.434 -1.07,1.184 -1.07,1.828 l -0.352,0.016 c 0,-2 1.743,-3.555 3.746,-3.555 2.067,0 3.602,1.664 3.602,3.539 0,1.942 -1.566,3.559 -3.602,3.559 z" /><path
         id="path372"
         style="fill:#000000;fill-opacity:1;fill-rule:nonzero;stroke:none"
         d="m -175.68232,128.24118 -5.078,0 0.176,-2.308 0.5,0 c 0,1.121 0.109,1.254 0.894,1.254 l 9.547,0 0,0.402 c -0.015,0.012 -0.242,0.137 -0.992,0.57 0.367,0.242 1.168,0.914 1.168,2.102 l -0.352,-0.067 c 0,-0.718 -0.386,-1.296 -0.976,-1.675 -0.34,-0.231 -0.383,-0.231 -0.672,-0.231 l -3.301,0 c -0.304,0 -0.32,0 -0.574,0.18 -0.902,0.621 -1.027,1.508 -1.027,1.887 0,0.722 0.418,1.3 1.027,1.683 0.656,0.418 1.566,0.465 2.223,0.465 0.593,0 1.554,-0.035 2.277,-0.492 0.496,-0.34 1.023,-0.946 1.023,-1.817 l 0.352,0.067 c 0,1.91 -1.566,3.57 -3.637,3.57 -2.035,0 -3.613,-1.566 -3.613,-3.398 0,-1.243 0.75,-1.938 1.035,-2.192 z" /><path
         id="path374"
         style="fill:#000000;fill-opacity:1;fill-rule:nonzero;stroke:none"
         d="m -170.85832,139.73318 0.063,0.008 0.055,0.008 0.062,0.012 0.176,0.047 0.058,0.019 0.118,0.047 0.109,0.055 0.055,0.031 0.05,0.031 0.102,0.071 0.047,0.039 0.043,0.043 0.047,0.039 0.039,0.047 0.039,0.043 0.039,0.05 0.031,0.051 0.035,0.051 0.055,0.109 0.02,0.063 0.019,0.058 0.016,0.063 0.015,0.066 0.008,0.063 0.008,0.066 0.004,0.07 c 0,0.332 -0.231,1.313 -1.524,1.313 l -0.894,0 0,-0.402 0.894,0 c 0.926,0 1.024,-0.399 1.024,-0.579 0,-0.527 -0.715,-0.593 -0.797,-0.593 l -3.207,0 c -0.672,0 -1.293,0 -1.887,-0.574 -0.621,-0.625 -0.879,-1.422 -0.879,-2.192 0,-1.316 0.75,-2.422 1.805,-2.422 0.48,0 0.758,0.321 0.758,0.739 0,0.445 -0.324,0.738 -0.742,0.738 -0.188,0 -0.715,-0.078 -0.739,-0.821 -0.554,0.434 -0.73,1.215 -0.73,1.731 0,0.789 0.621,1.699 2.051,1.699 l 2.527,0 c 1.523,0 2.066,-1.152 2.066,-1.875 0,-0.785 -0.562,-1.441 -1.359,-1.441 -0.879,0 -2.215,0.672 -2.309,3.316 l -0.335,0 c 0.046,-0.816 0.097,-1.937 0.578,-2.945 0.543,-1.199 1.375,-1.602 2.082,-1.602 1.293,0 1.695,1.551 1.695,2.563 0,1.058 -0.641,1.789 -1.391,2.097 z" /><path
         id="path376"
         style="fill:#000000;fill-opacity:1;fill-rule:nonzero;stroke:none"
         d="m -175.68232,145.17518 -5.078,0 0.176,-2.305 0.5,0 c 0,1.117 0.109,1.25 0.894,1.25 l 9.547,0 0,0.403 c -0.015,0.015 -0.242,0.14 -0.992,0.57 0.367,0.242 1.168,0.918 1.168,2.101 l -0.352,-0.066 c 0,-0.715 -0.386,-1.297 -0.976,-1.676 -0.34,-0.226 -0.383,-0.226 -0.672,-0.226 l -3.301,0 c -0.304,0 -0.32,0 -0.574,0.175 -0.902,0.622 -1.027,1.504 -1.027,1.887 0,0.723 0.418,1.305 1.027,1.684 0.656,0.418 1.566,0.468 2.223,0.468 0.593,0 1.554,-0.035 2.277,-0.5 0.496,-0.332 1.023,-0.945 1.023,-1.812 l 0.352,0.066 c 0,1.907 -1.566,3.571 -3.637,3.571 -2.035,0 -3.613,-1.567 -3.613,-3.395 0,-1.246 0.75,-1.937 1.035,-2.195 z" /><path
         id="path378"
         style="fill:#000000;fill-opacity:1;fill-rule:nonzero;stroke:none"
         d="m -176.71732,154.16718 0.172,-2.242 0.5,0 c 0,1.043 0.094,1.187 0.875,1.187 l 4.312,0 c 0.715,0 0.715,-0.175 0.715,-1.25 l 0.5,0 c -0.015,0.508 -0.051,1.375 -0.051,1.762 0,0.563 0.036,1.121 0.051,1.668 l -0.5,0 c 0,-1.059 -0.078,-1.125 -0.699,-1.125 l -5.875,0 z" /><path
         id="path380"
         style="fill:#000000;fill-opacity:1;fill-rule:nonzero;stroke:none"
         d="m -179.51032,154.23318 -0.043,-0.003 -0.051,-0.004 -0.043,-0.004 -0.047,-0.008 -0.039,-0.008 -0.043,-0.016 -0.043,-0.011 -0.039,-0.016 -0.039,-0.019 -0.035,-0.02 -0.039,-0.019 -0.062,-0.047 -0.032,-0.028 -0.031,-0.023 -0.055,-0.063 -0.027,-0.027 -0.047,-0.07 -0.039,-0.071 -0.016,-0.035 -0.015,-0.039 -0.016,-0.035 -0.011,-0.043 -0.012,-0.035 -0.008,-0.039 -0.008,-0.043 0,-0.043 -0.004,-0.039 -0.004,-0.043 c 0,-0.496 0.434,-0.848 0.848,-0.848 0.434,0 0.848,0.352 0.848,0.848 0,0.449 -0.332,0.851 -0.848,0.851 z" /><path
         id="path382"
         style="fill:#000000;fill-opacity:1;fill-rule:nonzero;stroke:none"
         d="m -180.76032,158.60518 0.176,-2.309 0.5,0 c 0,1.121 0.109,1.254 0.894,1.254 l 8.332,0 c 0.715,0 0.715,-0.18 0.715,-1.254 l 0.5,0 c -0.015,0.527 -0.051,1.379 -0.051,1.781 0,0.399 0.036,1.18 0.051,1.778 l -0.5,0 c 0,-1.079 0,-1.25 -0.715,-1.25 l -9.902,0 z" /><path
         id="path384"
         style="fill:#000000;fill-opacity:1;fill-rule:nonzero;stroke:none"
         d="m -176.71732,163.03418 0.172,-2.234 0.5,0 c 0,1.035 0.094,1.18 0.875,1.18 l 4.312,0 c 0.715,0 0.715,-0.172 0.715,-1.25 l 0.5,0 c -0.015,0.515 -0.051,1.378 -0.051,1.765 0,0.563 0.036,1.121 0.051,1.664 l -0.5,0 c 0,-1.054 -0.078,-1.125 -0.699,-1.125 l -5.875,0 z" /><path
         id="path386"
         style="fill:#000000;fill-opacity:1;fill-rule:nonzero;stroke:none"
         d="m -179.51032,163.10518 -0.043,-0.004 -0.051,-0.004 -0.043,-0.004 -0.047,-0.008 -0.039,-0.012 -0.086,-0.023 -0.078,-0.031 -0.035,-0.02 -0.039,-0.023 -0.031,-0.024 -0.031,-0.027 -0.032,-0.024 -0.031,-0.027 -0.027,-0.027 -0.055,-0.063 -0.023,-0.031 -0.024,-0.035 -0.019,-0.031 -0.02,-0.036 -0.016,-0.039 -0.015,-0.035 -0.016,-0.039 -0.023,-0.078 -0.008,-0.043 -0.008,-0.039 0,-0.039 -0.008,-0.086 c 0,-0.496 0.434,-0.848 0.848,-0.848 0.434,0 0.848,0.352 0.848,0.848 0,0.449 -0.332,0.852 -0.848,0.852 z" /><path
         id="path388"
         style="fill:#000000;fill-opacity:1;fill-rule:nonzero;stroke:none"
         d="m -176.04532,167.41318 0,2.289 -0.5,0 0,-2.289 -2.949,0 0,-0.398 c 1.312,-0.02 3.031,-0.5 3.089,-2.071 l 0.36,0 0,1.364 4.418,0 c 1.969,0 2.16,1.488 2.16,2.066 0,1.133 -1.133,1.586 -2.16,1.586 l -0.914,0 0,-0.402 0.879,0 c 1.187,0 1.793,-0.481 1.793,-1.075 0,-1.07 -1.453,-1.07 -1.727,-1.07 l -4.449,0 z" /><path
         id="path390"
         style="fill:#000000;fill-opacity:1;fill-rule:nonzero;stroke:none"
         d="m -175.02232,177.03418 -0.093,0.039 -0.086,0.039 -0.039,0.024 -0.043,0.023 -0.036,0.024 -0.039,0.023 -0.07,0.047 -0.125,0.102 -0.059,0.05 -0.05,0.051 -0.043,0.055 -0.047,0.054 -0.039,0.055 -0.035,0.055 -0.032,0.055 -0.027,0.054 -0.031,0.055 -0.039,0.109 -0.02,0.051 -0.015,0.051 -0.012,0.051 -0.008,0.047 -0.012,0.05 -0.008,0.043 -0.003,0.043 -0.008,0.043 -0.004,0.039 0,0.16 -0.5,0 c 0.031,-0.375 0.043,-0.836 0.043,-1.203 0,-0.289 -0.028,-1.047 -0.043,-1.394 l 0.5,0 c 0.015,0.496 0.285,0.75 0.687,0.75 0.16,0 0.188,-0.012 0.383,-0.094 l 3.942,-1.617 -4.309,-1.778 c -0.16,-0.066 -0.23,-0.093 -0.293,-0.093 -0.41,0 -0.41,0.59 -0.41,0.89 l -0.5,0 c 0.015,-0.41 0.043,-1.468 0.043,-1.742 0,-0.433 -0.012,-1.074 -0.043,-1.551 l 0.5,0 c 0,0.77 0,1.071 0.555,1.297 l 5.847,2.399 c 0.207,-0.078 0.738,-0.301 0.945,-0.403 0.879,-0.351 1.989,-0.797 1.989,-1.82 0,-0.082 0,-0.449 -0.289,-0.758 -0.067,0.5 -0.418,0.625 -0.672,0.625 -0.418,0 -0.676,-0.301 -0.676,-0.668 0,-0.32 0.211,-0.672 0.688,-0.672 0.722,0 1.3,0.672 1.3,1.473 0,1.008 -0.914,1.664 -1.828,2.047 l -6.836,2.82 z" /></g></g></svg>