<?xml version="1.0" encoding="UTF-8" standalone="no"?>
<!-- Created with Inkscape (http://www.inkscape.org/) -->

<svg
   xmlns:dc="http://purl.org/dc/elements/1.1/"
   xmlns:cc="http://creativecommons.org/ns#"
   xmlns:rdf="http://www.w3.org/1999/02/22-rdf-syntax-ns#"
   xmlns:svg="http://www.w3.org/2000/svg"
   xmlns="http://www.w3.org/2000/svg"
   xmlns:sodipodi="http://sodipodi.sourceforge.net/DTD/sodipodi-0.dtd"
   xmlns:inkscape="http://www.inkscape.org/namespaces/inkscape"
   id="svg2"
   version="1.1"
   inkscape:version="0.47 r22583"
   width="260.9375"
   height="222.02934"
   xml:space="preserve"
   sodipodi:docname="swed_np_sc_r.pdf"><metadata
     id="metadata8"><rdf:RDF><cc:Work
         rdf:about=""><dc:format>image/svg+xml</dc:format><dc:type
           rdf:resource="http://purl.org/dc/dcmitype/StillImage" /><dc:title></dc:title></cc:Work></rdf:RDF></metadata><defs
     id="defs6"><inkscape:perspective
       sodipodi:type="inkscape:persp3d"
       inkscape:vp_x="0 : 0.5 : 1"
       inkscape:vp_y="0 : 1000 : 0"
       inkscape:vp_z="1 : 0.5 : 1"
       inkscape:persp3d-origin="0.5 : 0.33333333 : 1"
       id="perspective10" /><clipPath
       clipPathUnits="userSpaceOnUse"
       id="clipPath20"><path
         d="M 2.5,2.5 2090,2.5 2090,1600 2.5,1600 2.5,2.5 z"
         id="path22" /></clipPath><clipPath
       clipPathUnits="userSpaceOnUse"
       id="clipPath154"><path
         d="m 225.832,1512.5 0,-1389.168 1761.668,0 0,1389.168 -1761.668,0 z"
         id="path156" /></clipPath><inkscape:perspective
       id="perspective2947"
       inkscape:persp3d-origin="0.5 : 0.33333333 : 1"
       inkscape:vp_z="1 : 0.5 : 1"
       inkscape:vp_y="0 : 1000 : 0"
       inkscape:vp_x="0 : 0.5 : 1"
       sodipodi:type="inkscape:persp3d" /></defs><sodipodi:namedview
     pagecolor="#ffffff"
     bordercolor="#666666"
     borderopacity="1"
     objecttolerance="10"
     gridtolerance="10"
     guidetolerance="10"
     inkscape:pageopacity="0"
     inkscape:pageshadow="2"
     inkscape:window-width="1680"
     inkscape:window-height="974"
     id="namedview4"
     showgrid="false"
     inkscape:zoom="2.36"
     inkscape:cx="130.3125"
     inkscape:cy="120.33443"
     inkscape:window-x="0"
     inkscape:window-y="25"
     inkscape:window-maximized="1"
     inkscape:current-layer="g12" /><g
     id="g12"
     inkscape:groupmode="layer"
     inkscape:label="swed_np_sc_r"
     transform="matrix(1.25,0,0,-1.25,-0.3125,200)"><g
       id="g14"
       transform="scale(0.1,0.1)"><g
         id="g16"><g
           id="g18"
           clip-path="url(#clipPath20)"><path
             d="m 0,0 2090,0 0,1600 L 0,1600 0,0 z"
             style="fill:#ffffff;fill-opacity:1;fill-rule:nonzero;stroke:none"
             id="path24" /><path
             d="m 225.832,124.168 1760.84,0 0,1388.33 -1760.84,0 0,-1388.33 z"
             style="fill:#ffffff;fill-opacity:1;fill-rule:evenodd;stroke:none"
             id="path26" /><path
             d="m 225.832,124.168 0,1388.332 1760.838,0 0,-1388.332 -1760.838,0"
             style="fill:none;stroke:#ffffff;stroke-width:5;stroke-linecap:butt;stroke-linejoin:round;stroke-miterlimit:10;stroke-opacity:1;stroke-dasharray:none"
             id="path28" /><path
             d="m 225.832,124.168 1760.838,0"
             style="fill:none;stroke:#000000;stroke-width:5;stroke-linecap:butt;stroke-linejoin:round;stroke-miterlimit:10;stroke-opacity:1;stroke-dasharray:none"
             id="path30" /><path
             d="m 225.832,1512.5 1760.838,0"
             style="fill:none;stroke:#000000;stroke-width:5;stroke-linecap:butt;stroke-linejoin:round;stroke-miterlimit:10;stroke-opacity:1;stroke-dasharray:none"
             id="path32" /><path
             d="m 225.832,124.168 0,1388.332"
             style="fill:none;stroke:#000000;stroke-width:5;stroke-linecap:butt;stroke-linejoin:round;stroke-miterlimit:10;stroke-opacity:1;stroke-dasharray:none"
             id="path34" /><path
             d="m 1986.67,124.168 0,1388.332"
             style="fill:none;stroke:#000000;stroke-width:5;stroke-linecap:butt;stroke-linejoin:round;stroke-miterlimit:10;stroke-opacity:1;stroke-dasharray:none"
             id="path36" /><path
             d="m 225.832,124.168 1760.838,0"
             style="fill:none;stroke:#000000;stroke-width:5;stroke-linecap:butt;stroke-linejoin:round;stroke-miterlimit:10;stroke-opacity:1;stroke-dasharray:none"
             id="path38" /><path
             d="m 225.832,124.168 0,1388.332"
             style="fill:none;stroke:#000000;stroke-width:5;stroke-linecap:butt;stroke-linejoin:round;stroke-miterlimit:10;stroke-opacity:1;stroke-dasharray:none"
             id="path40" /><path
             d="m 225.832,124.168 0,18.332"
             style="fill:none;stroke:#000000;stroke-width:5;stroke-linecap:butt;stroke-linejoin:round;stroke-miterlimit:10;stroke-opacity:1;stroke-dasharray:none"
             id="path42" /><path
             d="m 225.832,1512.5 0,-17.5"
             style="fill:none;stroke:#000000;stroke-width:5;stroke-linecap:butt;stroke-linejoin:round;stroke-miterlimit:10;stroke-opacity:1;stroke-dasharray:none"
             id="path44" /><g
             id="g46"
             transform="scale(10,10)"><text
               transform="matrix(1,0,0,-1,19.8332,0.333203)"
               id="text48"><tspan
                 style="font-size:10px;font-variant:normal;font-weight:normal;writing-mode:lr-tb;fill:#000000;fill-opacity:1;fill-rule:nonzero;stroke:none;font-family:Helvetica;-inkscape-font-specification:Helvetica"
                 x="0"
                 y="0"
                 id="tspan50">0</tspan></text>
</g><path
             d="m 665.832,124.168 0,18.332"
             style="fill:none;stroke:#000000;stroke-width:5;stroke-linecap:butt;stroke-linejoin:round;stroke-miterlimit:10;stroke-opacity:1;stroke-dasharray:none"
             id="path52" /><path
             d="m 665.832,1512.5 0,-17.5"
             style="fill:none;stroke:#000000;stroke-width:5;stroke-linecap:butt;stroke-linejoin:round;stroke-miterlimit:10;stroke-opacity:1;stroke-dasharray:none"
             id="path54" /><g
             id="g56"
             transform="scale(10,10)"><text
               transform="matrix(1,0,0,-1,59.6668,0.333203)"
               id="text58"><tspan
                 style="font-size:10px;font-variant:normal;font-weight:normal;writing-mode:lr-tb;fill:#000000;fill-opacity:1;fill-rule:nonzero;stroke:none;font-family:Helvetica;-inkscape-font-specification:Helvetica"
                 x="0 5.5599999 8.3400002"
                 y="0"
                 sodipodi:role="line"
                 id="tspan60">0.2</tspan></text>
</g><path
             d="m 1105.83,124.168 0,18.332"
             style="fill:none;stroke:#000000;stroke-width:5;stroke-linecap:butt;stroke-linejoin:round;stroke-miterlimit:10;stroke-opacity:1;stroke-dasharray:none"
             id="path62" /><path
             d="m 1105.83,1512.5 0,-17.5"
             style="fill:none;stroke:#000000;stroke-width:5;stroke-linecap:butt;stroke-linejoin:round;stroke-miterlimit:10;stroke-opacity:1;stroke-dasharray:none"
             id="path64" /><g
             id="g66"
             transform="scale(10,10)"><text
               transform="matrix(1,0,0,-1,103.667,0.333203)"
               id="text68"><tspan
                 style="font-size:10px;font-variant:normal;font-weight:normal;writing-mode:lr-tb;fill:#000000;fill-opacity:1;fill-rule:nonzero;stroke:none;font-family:Helvetica;-inkscape-font-specification:Helvetica"
                 x="0 5.5599999 8.3400002"
                 y="0"
                 sodipodi:role="line"
                 id="tspan70">0.4</tspan></text>
</g><path
             d="m 1545.83,124.168 0,18.332"
             style="fill:none;stroke:#000000;stroke-width:5;stroke-linecap:butt;stroke-linejoin:round;stroke-miterlimit:10;stroke-opacity:1;stroke-dasharray:none"
             id="path72" /><path
             d="m 1545.83,1512.5 0,-17.5"
             style="fill:none;stroke:#000000;stroke-width:5;stroke-linecap:butt;stroke-linejoin:round;stroke-miterlimit:10;stroke-opacity:1;stroke-dasharray:none"
             id="path74" /><g
             id="g76"
             transform="scale(10,10)"><text
               transform="matrix(1,0,0,-1,147.667,0.333203)"
               id="text78"><tspan
                 style="font-size:10px;font-variant:normal;font-weight:normal;writing-mode:lr-tb;fill:#000000;fill-opacity:1;fill-rule:nonzero;stroke:none;font-family:Helvetica;-inkscape-font-specification:Helvetica"
                 x="0 5.5599999 8.3400002"
                 y="0"
                 sodipodi:role="line"
                 id="tspan80">0.6</tspan></text>
</g><path
             d="m 1986.67,124.168 0,18.332"
             style="fill:none;stroke:#000000;stroke-width:5;stroke-linecap:butt;stroke-linejoin:round;stroke-miterlimit:10;stroke-opacity:1;stroke-dasharray:none"
             id="path82" /><path
             d="m 1986.67,1512.5 0,-17.5"
             style="fill:none;stroke:#000000;stroke-width:5;stroke-linecap:butt;stroke-linejoin:round;stroke-miterlimit:10;stroke-opacity:1;stroke-dasharray:none"
             id="path84" /><g
             id="g86"
             transform="scale(10,10)"><text
               transform="matrix(1,0,0,-1,191.75,0.333203)"
               id="text88"><tspan
                 style="font-size:10px;font-variant:normal;font-weight:normal;writing-mode:lr-tb;fill:#000000;fill-opacity:1;fill-rule:nonzero;stroke:none;font-family:Helvetica;-inkscape-font-specification:Helvetica"
                 x="0 5.5599999 8.3400002"
                 y="0"
                 sodipodi:role="line"
                 id="tspan90">0.8</tspan></text>
</g><path
             d="m 225.832,124.168 17.5,0"
             style="fill:none;stroke:#000000;stroke-width:5;stroke-linecap:butt;stroke-linejoin:round;stroke-miterlimit:10;stroke-opacity:1;stroke-dasharray:none"
             id="path92" /><path
             d="m 1986.67,124.168 -18.34,0"
             style="fill:none;stroke:#000000;stroke-width:5;stroke-linecap:butt;stroke-linejoin:round;stroke-miterlimit:10;stroke-opacity:1;stroke-dasharray:none"
             id="path94" /><g
             id="g96"
             transform="scale(10,10)"><text
               transform="matrix(1,0,0,-1,14.1668,8.75)"
               id="text98"><tspan
                 style="font-size:10px;font-variant:normal;font-weight:normal;writing-mode:lr-tb;fill:#000000;fill-opacity:1;fill-rule:nonzero;stroke:none;font-family:Helvetica;-inkscape-font-specification:Helvetica"
                 x="0"
                 y="0"
                 id="tspan100">0</tspan></text>
</g><path
             d="m 225.832,471.668 17.5,0"
             style="fill:none;stroke:#000000;stroke-width:5;stroke-linecap:butt;stroke-linejoin:round;stroke-miterlimit:10;stroke-opacity:1;stroke-dasharray:none"
             id="path102" /><path
             d="m 1986.67,471.668 -18.34,0"
             style="fill:none;stroke:#000000;stroke-width:5;stroke-linecap:butt;stroke-linejoin:round;stroke-miterlimit:10;stroke-opacity:1;stroke-dasharray:none"
             id="path104" /><g
             id="g106"
             transform="scale(10,10)"><text
               transform="matrix(1,0,0,-1,0.25,43.5)"
               id="text108"><tspan
                 style="font-size:10px;font-variant:normal;font-weight:normal;writing-mode:lr-tb;fill:#000000;fill-opacity:1;fill-rule:nonzero;stroke:none;font-family:Helvetica;-inkscape-font-specification:Helvetica"
                 x="0 5.5599999 8.3400002 13.9"
                 y="0"
                 sodipodi:role="line"
                 id="tspan110">0.05</tspan></text>
</g><path
             d="m 225.832,818.332 17.5,0"
             style="fill:none;stroke:#000000;stroke-width:5;stroke-linecap:butt;stroke-linejoin:round;stroke-miterlimit:10;stroke-opacity:1;stroke-dasharray:none"
             id="path112" /><path
             d="m 1986.67,818.332 -18.34,0"
             style="fill:none;stroke:#000000;stroke-width:5;stroke-linecap:butt;stroke-linejoin:round;stroke-miterlimit:10;stroke-opacity:1;stroke-dasharray:none"
             id="path114" /><g
             id="g116"
             transform="scale(10,10)"><text
               transform="matrix(1,0,0,-1,5.8332,78.1668)"
               id="text118"><tspan
                 style="font-size:10px;font-variant:normal;font-weight:normal;writing-mode:lr-tb;fill:#000000;fill-opacity:1;fill-rule:nonzero;stroke:none;font-family:Helvetica;-inkscape-font-specification:Helvetica"
                 x="0 5.5599999 8.3400002"
                 y="0"
                 sodipodi:role="line"
                 id="tspan120">0.1</tspan></text>
</g><path
             d="m 225.832,1165.83 17.5,0"
             style="fill:none;stroke:#000000;stroke-width:5;stroke-linecap:butt;stroke-linejoin:round;stroke-miterlimit:10;stroke-opacity:1;stroke-dasharray:none"
             id="path122" /><path
             d="m 1986.67,1165.83 -18.34,0"
             style="fill:none;stroke:#000000;stroke-width:5;stroke-linecap:butt;stroke-linejoin:round;stroke-miterlimit:10;stroke-opacity:1;stroke-dasharray:none"
             id="path124" /><g
             id="g126"
             transform="scale(10,10)"><text
               transform="matrix(1,0,0,-1,0.25,112.917)"
               id="text128"><tspan
                 style="font-size:10px;font-variant:normal;font-weight:normal;writing-mode:lr-tb;fill:#000000;fill-opacity:1;fill-rule:nonzero;stroke:none;font-family:Helvetica;-inkscape-font-specification:Helvetica"
                 x="0 5.5599999 8.3400002 13.9"
                 y="0"
                 sodipodi:role="line"
                 id="tspan130">0.15</tspan></text>
</g><path
             d="m 225.832,1512.5 17.5,0"
             style="fill:none;stroke:#000000;stroke-width:5;stroke-linecap:butt;stroke-linejoin:round;stroke-miterlimit:10;stroke-opacity:1;stroke-dasharray:none"
             id="path132" /><path
             d="m 1986.67,1512.5 -18.34,0"
             style="fill:none;stroke:#000000;stroke-width:5;stroke-linecap:butt;stroke-linejoin:round;stroke-miterlimit:10;stroke-opacity:1;stroke-dasharray:none"
             id="path134" /><g
             id="g136"
             transform="scale(10,10)"><text
               transform="matrix(1,0,0,-1,5.8332,147.583)"
               id="text138"><tspan
                 style="font-size:10px;font-variant:normal;font-weight:normal;writing-mode:lr-tb;fill:#000000;fill-opacity:1;fill-rule:nonzero;stroke:none;font-family:Helvetica;-inkscape-font-specification:Helvetica"
                 x="0 5.5599999 8.3400002"
                 y="0"
                 sodipodi:role="line"
                 id="tspan140">0.2</tspan></text>
</g><path
             d="m 225.832,124.168 1760.838,0"
             style="fill:none;stroke:#000000;stroke-width:5;stroke-linecap:butt;stroke-linejoin:round;stroke-miterlimit:10;stroke-opacity:1;stroke-dasharray:none"
             id="path142" /><path
             d="m 225.832,1512.5 1760.838,0"
             style="fill:none;stroke:#000000;stroke-width:5;stroke-linecap:butt;stroke-linejoin:round;stroke-miterlimit:10;stroke-opacity:1;stroke-dasharray:none"
             id="path144" /><path
             d="m 225.832,124.168 0,1388.332"
             style="fill:none;stroke:#000000;stroke-width:5;stroke-linecap:butt;stroke-linejoin:round;stroke-miterlimit:10;stroke-opacity:1;stroke-dasharray:none"
             id="path146" /><path
             d="m 1986.67,124.168 0,1388.332"
             style="fill:none;stroke:#000000;stroke-width:5;stroke-linecap:butt;stroke-linejoin:round;stroke-miterlimit:10;stroke-opacity:1;stroke-dasharray:none"
             id="path148" /></g></g><g
         id="g150"><g
           id="g152"
           clip-path="url(#clipPath154)"><path
             d="m 242.5,124.168 139.168,0 0,1062.5 -139.168,0 0,-1062.5 z"
             style="fill:#00008f;fill-opacity:1;fill-rule:evenodd;stroke:none"
             id="path158" /><path
             d="m 242.5,124.168 0,1062.502 139.168,0 0,-1062.502 -139.168,0"
             style="fill:none;stroke:#000000;stroke-width:5;stroke-linecap:butt;stroke-linejoin:round;stroke-miterlimit:10;stroke-opacity:1;stroke-dasharray:none"
             id="path160" /><path
             d="m 416.668,124.168 139.164,0 0,1184.16 -139.164,0 0,-1184.16 z"
             style="fill:#00008f;fill-opacity:1;fill-rule:evenodd;stroke:none"
             id="path162" /><path
             d="m 416.668,124.168 0,1184.162 139.164,0 0,-1184.162 -139.164,0"
             style="fill:none;stroke:#000000;stroke-width:5;stroke-linecap:butt;stroke-linejoin:round;stroke-miterlimit:10;stroke-opacity:1;stroke-dasharray:none"
             id="path164" /><path
             d="m 590.832,124.168 139.168,0 0,766.664 -139.168,0 0,-766.664 z"
             style="fill:#00008f;fill-opacity:1;fill-rule:evenodd;stroke:none"
             id="path166" /><path
             d="m 590.832,124.168 0,766.664 139.168,0 0,-766.664 -139.168,0"
             style="fill:none;stroke:#000000;stroke-width:5;stroke-linecap:butt;stroke-linejoin:round;stroke-miterlimit:10;stroke-opacity:1;stroke-dasharray:none"
             id="path168" /><path
             d="m 765,124.168 139.168,0 0,930.832 -139.168,0 0,-930.832 z"
             style="fill:#00008f;fill-opacity:1;fill-rule:evenodd;stroke:none"
             id="path170" /><path
             d="m 765,124.168 0,930.832 139.168,0 0,-930.832 -139.168,0"
             style="fill:none;stroke:#000000;stroke-width:5;stroke-linecap:butt;stroke-linejoin:round;stroke-miterlimit:10;stroke-opacity:1;stroke-dasharray:none"
             id="path172" /><path
             d="m 938.332,124.168 140,0 0,1055 -140,0 0,-1055 z"
             style="fill:#00008f;fill-opacity:1;fill-rule:evenodd;stroke:none"
             id="path174" /><path
             d="m 938.332,124.168 0,1055.002 139.998,0 0,-1055.002 -139.998,0"
             style="fill:none;stroke:#000000;stroke-width:5;stroke-linecap:butt;stroke-linejoin:round;stroke-miterlimit:10;stroke-opacity:1;stroke-dasharray:none"
             id="path176" /><path
             d="m 1112.5,124.168 139.168,0 0,875 -139.168,0 0,-875 z"
             style="fill:#00008f;fill-opacity:1;fill-rule:evenodd;stroke:none"
             id="path178" /><path
             d="m 1112.5,124.168 0,875 139.17,0 0,-875 -139.17,0"
             style="fill:none;stroke:#000000;stroke-width:5;stroke-linecap:butt;stroke-linejoin:round;stroke-miterlimit:10;stroke-opacity:1;stroke-dasharray:none"
             id="path180" /><path
             d="m 1286.67,124.168 139.164,0 0,629.164 -139.164,0 0,-629.164 z"
             style="fill:#00008f;fill-opacity:1;fill-rule:evenodd;stroke:none"
             id="path182" /><path
             d="m 1286.67,124.168 0,629.164 139.16,0 0,-629.164 -139.16,0"
             style="fill:none;stroke:#000000;stroke-width:5;stroke-linecap:butt;stroke-linejoin:round;stroke-miterlimit:10;stroke-opacity:1;stroke-dasharray:none"
             id="path184" /><path
             d="m 1460.83,124.168 139.168,0 0,280.832 -139.168,0 0,-280.832 z"
             style="fill:#00008f;fill-opacity:1;fill-rule:evenodd;stroke:none"
             id="path186" /><path
             d="m 1460.83,124.168 0,280.832 139.17,0 0,-280.832 -139.17,0"
             style="fill:none;stroke:#000000;stroke-width:5;stroke-linecap:butt;stroke-linejoin:round;stroke-miterlimit:10;stroke-opacity:1;stroke-dasharray:none"
             id="path188" /><path
             d="m 1635,124.168 139.168,0 0,96.6641 -139.168,0 0,-96.6641 z"
             style="fill:#00008f;fill-opacity:1;fill-rule:evenodd;stroke:none"
             id="path190" /><path
             d="m 1635,124.168 0,96.664 139.17,0 0,-96.664 -139.17,0"
             style="fill:none;stroke:#000000;stroke-width:5;stroke-linecap:butt;stroke-linejoin:round;stroke-miterlimit:10;stroke-opacity:1;stroke-dasharray:none"
             id="path192" /><path
             d="m 1808.33,124.168 139.168,0 0,64.1641 -139.168,0 0,-64.1641 z"
             style="fill:#00008f;fill-opacity:1;fill-rule:evenodd;stroke:none"
             id="path194" /><path
             d="m 1808.33,124.168 0,64.164 139.17,0 0,-64.164 -139.17,0"
             style="fill:none;stroke:#000000;stroke-width:5;stroke-linecap:butt;stroke-linejoin:round;stroke-miterlimit:10;stroke-opacity:1;stroke-dasharray:none"
             id="path196" /><path
             d="m 225.832,124.168 1760.838,0"
             style="fill:none;stroke:#000000;stroke-width:5;stroke-linecap:butt;stroke-linejoin:round;stroke-miterlimit:10;stroke-opacity:1;stroke-dasharray:none"
             id="path198" /></g></g></g><g
       transform="translate(-5.1032206,-17.640474)"
       id="g314"><path
         d="m 44.445,12.185 0,0.047 0.004,0.047 0,0.086 0.004,0.035 0.004,0.039 0.004,0.035 0.008,0.031 0.011,0.035 0.012,0.028 0.012,0.031 0.016,0.023 0.015,0.028 0.047,0.047 0.027,0.019 0.063,0.031 0.019,0.012 0.02,0.008 0.019,0.004 0.02,0.012 0.047,0.007 0.023,0.008 0.024,0.004 0.027,0.008 0.027,0.004 0.032,0.008 0.031,0 0.027,0.004 0.035,0.007 0.032,0 0.105,0.012 0.043,0 0.039,0.004 0.043,0 0.043,0.004 0.043,0 0.047,0.004 0.566,0 0,0.441 c -0.5,-0.047 -1.621,-0.047 -2.164,-0.047 -0.55,0 -1.679,0 -2.179,0.047 l 0,-0.441 0.371,0 c 1.125,0 1.172,-0.156 1.172,-0.672 l 0,-7.5 c 0,-0.512 -0.047,-0.668 -1.172,-0.668 l -0.371,0 0,-0.441 c 0.5,0.046 1.629,0.046 2.168,0.046 0.554,0 1.675,0 2.175,-0.046 l 0,0.441 -0.367,0 c -1.125,0 -1.172,0.156 -1.172,0.668 l 0,7.5 z"
         style="fill:#000000;fill-opacity:1;fill-rule:nonzero;stroke:none"
         id="path316" /><path
         d="m 47.953,8.474 0,-3.82 c 0,-0.637 -0.152,-0.637 -1.109,-0.637 l 0,-0.441 c 0.5,0.015 1.222,0.046 1.605,0.046 0.371,0 1.113,-0.031 1.598,-0.046 l 0,0.441 c -0.953,0 -1.109,0 -1.109,0.637 l 0,2.621 c 0,1.484 1.007,2.277 1.917,2.277 0.899,0 1.055,-0.769 1.055,-1.578 l 0,-3.32 c 0,-0.637 -0.156,-0.637 -1.109,-0.637 l 0,-0.441 c 0.5,0.015 1.222,0.046 1.609,0.046 0.367,0 1.106,-0.031 1.594,-0.046 l 0,0.441 c -0.742,0 -1.098,0 -1.109,0.43 l 0,2.718 c 0,1.223 0,1.664 -0.446,2.172 -0.195,0.246 -0.672,0.528 -1.488,0.528 -1.043,0 -1.711,-0.614 -2.109,-1.489 l 0,1.489 -2.008,-0.157 0,-0.441 c 0.996,0 1.109,-0.098 1.109,-0.793 z"
         style="fill:#000000;fill-opacity:1;fill-rule:nonzero;stroke:none"
         id="path318" /><path
         d="m 56.359,9.267 2.036,0 0,0.441 -2.036,0 0,2.621 -0.355,0 C 55.988,11.165 55.559,9.638 54.168,9.583 l 0,-0.316 1.207,0 0,-3.93 c 0,-1.746 1.324,-1.918 1.84,-1.918 1.008,0 1.406,1.008 1.406,1.918 l 0,0.813 -0.355,0 0,-0.781 c 0,-1.055 -0.43,-1.594 -0.954,-1.594 -0.953,0 -0.953,1.293 -0.953,1.539 l 0,3.953 z"
         style="fill:#000000;fill-opacity:1;fill-rule:nonzero;stroke:none"
         id="path320" /><path
         d="m 60.996,6.865 0.012,0.3 c 0.086,2.118 1.281,2.473 1.769,2.473 1.461,0 1.606,-1.922 1.606,-2.473 l -3.375,0 -0.012,-0.3 3.973,0 c 0.312,0 0.351,0 0.351,0.3 0,1.403 -0.765,2.786 -2.543,2.786 -1.652,0 -2.965,-1.465 -2.965,-3.247 0,-1.906 1.497,-3.285 3.133,-3.285 1.739,0 2.375,1.578 2.375,1.848 0,0.141 -0.109,0.172 -0.179,0.172 -0.133,0 -0.161,-0.082 -0.192,-0.199 -0.496,-1.465 -1.777,-1.465 -1.918,-1.465 -0.715,0 -1.285,0.426 -1.605,0.953 -0.43,0.68 -0.43,1.625 -0.43,2.137 z"
         style="fill:#000000;fill-opacity:1;fill-rule:nonzero;stroke:none"
         id="path322" /><path
         d="m 68.098,8.302 0,1.563 -1.977,-0.157 0,-0.441 c 0.996,0 1.109,-0.098 1.109,-0.793 l 0,-3.82 c 0,-0.637 -0.152,-0.637 -1.109,-0.637 l 0,-0.441 c 0.555,0.015 1.223,0.046 1.625,0.046 0.566,0 1.234,0 1.809,-0.046 l 0,0.441 -0.301,0 c -1.055,0 -1.086,0.156 -1.086,0.668 l 0,2.191 c 0,1.407 0.602,2.676 1.684,2.676 0.097,0 0.125,0 0.156,-0.015 -0.047,-0.012 -0.332,-0.18 -0.332,-0.551 0,-0.403 0.301,-0.61 0.617,-0.61 0.254,0 0.613,0.168 0.613,0.621 0,0.457 -0.445,0.868 -1.054,0.868 -1.04,0 -1.551,-0.95 -1.754,-1.563 z"
         style="fill:#000000;fill-opacity:1;fill-rule:nonzero;stroke:none"
         id="path324" /><path
         d="M 76.051,4.654 76.059,4.599 76.066,4.548 76.078,4.494 76.086,4.443 76.102,4.388 76.121,4.337 76.137,4.287 76.176,4.185 76.199,4.134 76.227,4.083 76.254,4.037 76.281,3.994 76.344,3.9 76.449,3.783 76.492,3.744 76.578,3.673 76.621,3.646 76.715,3.591 76.766,3.568 76.816,3.548 76.926,3.517 76.98,3.505 77.043,3.497 77.16,3.49 c 0.301,0 1.168,0.203 1.168,1.355 l 0,0.793 -0.359,0 0,-0.793 c 0,-0.828 -0.348,-0.914 -0.508,-0.914 -0.473,0 -0.531,0.637 -0.531,0.711 l 0,2.848 c 0,0.601 0,1.152 -0.508,1.679 -0.559,0.551 -1.27,0.782 -1.953,0.782 -1.168,0 -2.149,-0.668 -2.149,-1.606 0,-0.426 0.285,-0.672 0.657,-0.672 0.398,0 0.656,0.285 0.656,0.656 0,0.168 -0.074,0.637 -0.727,0.657 0.383,0.496 1.078,0.652 1.532,0.652 0.703,0 1.511,-0.555 1.511,-1.824 l 0,-2.246 c 0,-1.356 -1.019,-1.836 -1.664,-1.836 -0.699,0 -1.281,0.5 -1.281,1.207 0,0.781 0.598,1.969 2.945,2.051 l 0,0.3 C 75.227,7.247 74.23,7.204 73.332,6.775 72.266,6.29 71.906,5.552 71.906,4.927 c 0,-1.152 1.383,-1.508 2.278,-1.508 0.945,0 1.593,0.567 1.867,1.235 z"
         style="fill:#000000;fill-opacity:1;fill-rule:nonzero;stroke:none"
         id="path326" /><path
         d="m 80.105,6.677 0.004,0.11 0,0.101 0.004,0.106 0.024,0.293 0.008,0.089 0.015,0.094 0.024,0.172 0.019,0.086 0.016,0.082 0.039,0.156 0.043,0.145 0.047,0.14 0.054,0.133 0.055,0.121 0.059,0.117 0.062,0.106 0.067,0.101 0.07,0.09 0.07,0.086 0.074,0.082 0.075,0.075 0.078,0.066 0.078,0.059 0.082,0.054 0.078,0.047 0.082,0.043 0.078,0.035 0.082,0.035 0.082,0.024 0.078,0.023 0.078,0.02 0.157,0.023 0.074,0.004 0.07,0.004 c 0.125,0 1.024,-0.016 1.524,-0.531 -0.586,-0.043 -0.672,-0.469 -0.672,-0.653 0,-0.371 0.258,-0.656 0.656,-0.656 0.367,0 0.652,0.246 0.652,0.668 0,0.969 -1.082,1.524 -2.179,1.524 -1.774,0 -3.086,-1.536 -3.086,-3.301 0,-1.821 1.406,-3.231 3.058,-3.231 1.907,0 2.364,1.711 2.364,1.848 0,0.141 -0.145,0.141 -0.184,0.141 -0.129,0 -0.156,-0.051 -0.187,-0.141 -0.411,-1.32 -1.336,-1.492 -1.86,-1.492 -0.754,0 -2.012,0.613 -2.012,2.902 z"
         style="fill:#000000;fill-opacity:1;fill-rule:nonzero;stroke:none"
         id="path328" /><path
         d="m 87.215,9.267 2.031,0 0,0.441 -2.031,0 0,2.621 -0.36,0 C 86.844,11.165 86.414,9.638 85.023,9.583 l 0,-0.316 1.207,0 0,-3.93 c 0,-1.746 1.325,-1.918 1.836,-1.918 1.012,0 1.411,1.008 1.411,1.918 l 0,0.813 -0.356,0 0,-0.781 c 0,-1.055 -0.43,-1.594 -0.957,-1.594 -0.949,0 -0.949,1.293 -0.949,1.539 l 0,3.953 z"
         style="fill:#000000;fill-opacity:1;fill-rule:nonzero;stroke:none"
         id="path330" /><path
         d="m 92.785,9.865 -1.988,-0.157 0,-0.441 c 0.922,0 1.051,-0.086 1.051,-0.781 l 0,-3.832 c 0,-0.637 -0.153,-0.637 -1.11,-0.637 l 0,-0.441 c 0.457,0.015 1.223,0.046 1.567,0.046 0.5,0 0.996,-0.031 1.48,-0.046 l 0,0.441 c -0.941,0 -1,0.074 -1,0.625 l 0,5.223 z"
         style="fill:#000000;fill-opacity:1;fill-rule:nonzero;stroke:none"
         id="path332" /><path
         d="m 92.844,12.345 0,0.039 -0.004,0.043 -0.008,0.039 -0.004,0.039 -0.008,0.039 -0.011,0.035 -0.012,0.04 -0.016,0.035 -0.011,0.031 -0.024,0.035 -0.016,0.031 -0.019,0.032 -0.07,0.082 -0.051,0.05 -0.028,0.024 -0.027,0.019 -0.062,0.039 -0.032,0.016 -0.035,0.016 -0.031,0.015 -0.031,0.012 -0.035,0.012 -0.039,0.008 -0.032,0.007 -0.039,0.008 -0.035,0 -0.035,0.004 -0.039,0.004 c -0.442,0 -0.754,-0.387 -0.754,-0.754 0,-0.387 0.312,-0.754 0.754,-0.754 0.398,0 0.754,0.297 0.754,0.754 z"
         style="fill:#000000;fill-opacity:1;fill-rule:nonzero;stroke:none"
         id="path334" /><path
         d="m 100.918,6.622 -0.008,0.168 -0.012,0.168 -0.019,0.164 -0.027,0.165 -0.036,0.16 -0.043,0.156 -0.05,0.156 -0.059,0.149 -0.062,0.148 -0.067,0.141 -0.078,0.14 -0.082,0.137 -0.09,0.129 -0.094,0.125 -0.097,0.125 -0.106,0.113 -0.109,0.113 -0.113,0.106 -0.121,0.098 -0.122,0.093 -0.128,0.086 -0.133,0.082 -0.137,0.075 -0.137,0.066 -0.144,0.062 -0.145,0.051 -0.148,0.047 -0.153,0.035 -0.152,0.032 -0.16,0.019 -0.156,0.016 -0.16,0.004 -0.016,-0.313 c 0.625,0 1.238,-0.316 1.609,-0.926 0.371,-0.613 0.371,-1.437 0.371,-1.976 0,-0.516 0,-1.282 -0.316,-1.907 C 99.109,4.185 98.48,3.775 97.77,3.775 c -0.614,0 -1.239,0.301 -1.622,0.953 -0.359,0.629 -0.359,1.492 -0.359,2.008 0,0.554 0,1.32 0.34,1.949 0.391,0.652 1.055,0.953 1.625,0.953 l 0.016,0.313 c -1.778,0 -3.161,-1.551 -3.161,-3.329 0,-1.839 1.481,-3.203 3.145,-3.203 1.726,0 3.164,1.395 3.164,3.203 z"
         style="fill:#000000;fill-opacity:1;fill-rule:nonzero;stroke:none"
         id="path336" /><path
         d="m 102.906,8.474 0,-3.82 c 0,-0.637 -0.156,-0.637 -1.109,-0.637 l 0,-0.441 c 0.5,0.015 1.223,0.046 1.605,0.046 0.371,0 1.114,-0.031 1.594,-0.046 l 0,0.441 c -0.949,0 -1.105,0 -1.105,0.637 l 0,2.621 c 0,1.484 1.007,2.277 1.921,2.277 0.895,0 1.051,-0.769 1.051,-1.578 l 0,-3.32 c 0,-0.637 -0.156,-0.637 -1.113,-0.637 l 0,-0.441 c 0.5,0.015 1.23,0.046 1.613,0.046 0.371,0 1.106,-0.031 1.594,-0.046 l 0,0.441 c -0.742,0 -1.098,0 -1.113,0.43 l 0,2.718 c 0,1.223 0,1.664 -0.442,2.172 -0.195,0.246 -0.668,0.528 -1.492,0.528 -1.035,0 -1.707,-0.614 -2.105,-1.489 l 0,1.489 -2.008,-0.157 0,-0.441 c 0.992,0 1.109,-0.098 1.109,-0.793 z"
         style="fill:#000000;fill-opacity:1;fill-rule:nonzero;stroke:none"
         id="path338" /><path
         d="m 116.402,8.302 0,1.563 -1.976,-0.157 0,-0.441 c 0.992,0 1.109,-0.098 1.109,-0.793 l 0,-3.82 c 0,-0.637 -0.156,-0.637 -1.109,-0.637 l 0,-0.441 c 0.554,0.015 1.222,0.046 1.625,0.046 0.566,0 1.234,0 1.804,-0.046 l 0,0.441 -0.296,0 c -1.055,0 -1.086,0.156 -1.086,0.668 l 0,2.191 c 0,1.407 0.597,2.676 1.683,2.676 0.098,0 0.125,0 0.156,-0.015 -0.042,-0.012 -0.332,-0.18 -0.332,-0.551 0,-0.403 0.301,-0.61 0.618,-0.61 0.254,0 0.613,0.168 0.613,0.621 0,0.457 -0.441,0.868 -1.055,0.868 -1.039,0 -1.554,-0.95 -1.754,-1.563 z"
         style="fill:#000000;fill-opacity:1;fill-rule:nonzero;stroke:none"
         id="path340" /><path
         d="m 124.355,4.654 0.008,-0.055 0.008,-0.051 0.012,-0.054 0.012,-0.051 0.011,-0.055 0.016,-0.051 0.058,-0.152 0.024,-0.051 0.027,-0.051 0.024,-0.046 0.031,-0.043 0.062,-0.094 0.071,-0.078 0.078,-0.078 0.039,-0.036 0.043,-0.035 0.047,-0.027 0.043,-0.027 0.051,-0.028 0.05,-0.023 0.051,-0.02 0.109,-0.031 0.059,-0.012 0.055,-0.008 0.125,-0.007 c 0.293,0 1.164,0.203 1.164,1.355 l 0,0.793 -0.356,0 0,-0.793 c 0,-0.828 -0.351,-0.914 -0.515,-0.914 -0.469,0 -0.524,0.637 -0.524,0.711 l 0,2.848 c 0,0.601 0,1.152 -0.511,1.679 -0.559,0.551 -1.266,0.782 -1.95,0.782 -1.172,0 -2.152,-0.668 -2.152,-1.606 0,-0.426 0.285,-0.672 0.656,-0.672 0.395,0 0.657,0.285 0.657,0.656 0,0.168 -0.075,0.637 -0.727,0.657 0.383,0.496 1.078,0.652 1.535,0.652 0.699,0 1.508,-0.555 1.508,-1.824 l 0,-2.246 c 0,-1.356 -1.024,-1.836 -1.668,-1.836 -0.695,0 -1.277,0.5 -1.277,1.207 0,0.781 0.597,1.969 2.945,2.051 l 0,0.3 c -0.723,-0.043 -1.719,-0.086 -2.613,-0.515 -1.071,-0.485 -1.426,-1.223 -1.426,-1.848 0,-1.152 1.379,-1.508 2.277,-1.508 0.942,0 1.594,0.567 1.863,1.235 z"
         style="fill:#000000;fill-opacity:1;fill-rule:nonzero;stroke:none"
         id="path342" /><path
         d="m 132.156,4.357 0,-0.938 2.09,0.157 0,0.441 c -0.996,0 -1.105,0.098 -1.105,0.797 l 0,8.64 -2.051,-0.156 0,-0.441 c 0.996,0 1.105,-0.098 1.105,-0.801 l 0,-3.07 c -0.41,0.508 -1.023,0.879 -1.793,0.879 l 0.059,-0.313 c 0.5,0 1.098,-0.215 1.539,-0.851 0.156,-0.243 0.156,-0.274 0.156,-0.528 l 0,-2.922 c 0,-0.254 0,-0.285 -0.156,-0.523 -0.43,-0.684 -1.07,-0.996 -1.684,-0.996 -0.636,0 -1.152,0.367 -1.492,0.91 -0.367,0.586 -0.414,1.395 -0.414,1.98 0,0.524 0.028,1.383 0.442,2.02 0.3,0.441 0.843,0.91 1.609,0.91 l -0.059,0.313 c -1.675,0 -3.175,-1.391 -3.175,-3.227 0,-1.809 1.398,-3.219 3.019,-3.219 0.91,0 1.555,0.481 1.91,0.938 z"
         style="fill:#000000;fill-opacity:1;fill-rule:nonzero;stroke:none"
         id="path344" /><path
         d="m 137.184,9.865 -1.989,-0.157 0,-0.441 c 0.922,0 1.051,-0.086 1.051,-0.781 l 0,-3.832 c 0,-0.637 -0.156,-0.637 -1.113,-0.637 l 0,-0.441 c 0.457,0.015 1.222,0.046 1.57,0.046 0.5,0 0.992,-0.031 1.481,-0.046 l 0,0.441 c -0.942,0 -1,0.074 -1,0.625 l 0,5.223 z"
         style="fill:#000000;fill-opacity:1;fill-rule:nonzero;stroke:none"
         id="path346" /><path
         d="m 137.242,12.345 -0.004,0.039 0,0.043 -0.004,0.039 -0.007,0.039 -0.012,0.039 -0.012,0.035 -0.008,0.04 -0.015,0.035 -0.016,0.031 -0.016,0.035 -0.039,0.063 -0.07,0.082 -0.027,0.023 -0.024,0.027 -0.027,0.024 -0.063,0.039 -0.027,0.019 -0.031,0.016 -0.035,0.016 -0.032,0.015 -0.07,0.024 -0.105,0.023 -0.036,0 -0.039,0.004 -0.035,0.004 c -0.441,0 -0.754,-0.387 -0.754,-0.754 0,-0.387 0.313,-0.754 0.754,-0.754 0.399,0 0.754,0.297 0.754,0.754 z"
         style="fill:#000000;fill-opacity:1;fill-rule:nonzero;stroke:none"
         id="path348" /><path
         d="m 144.172,4.701 0,-1.282 2.055,0.157 0,0.441 c -1,0 -1.118,0.098 -1.118,0.797 l 0,5.051 -2.089,-0.157 0,-0.441 c 1,0 1.109,-0.098 1.109,-0.793 l 0,-2.539 c 0,-1.234 -0.68,-2.203 -1.723,-2.203 -1.191,0 -1.25,0.668 -1.25,1.41 l 0,4.723 -2.094,-0.157 0,-0.441 c 1.11,0 1.11,-0.039 1.11,-1.309 l 0,-2.136 c 0,-1.11 0,-2.403 2.164,-2.403 0.797,0 1.422,0.395 1.836,1.282 z"
         style="fill:#000000;fill-opacity:1;fill-rule:nonzero;stroke:none"
         id="path350" /><path
         d="m 149.488,6.337 0.032,-0.004 0.035,-0.007 0.043,-0.008 0.043,-0.012 0.047,-0.012 0.05,-0.011 0.055,-0.012 0.059,-0.02 0.054,-0.015 0.063,-0.02 0.125,-0.047 0.062,-0.027 0.188,-0.094 0.062,-0.043 0.063,-0.039 0.054,-0.043 0.059,-0.047 0.055,-0.05 0.101,-0.11 0.043,-0.062 0.039,-0.063 0.024,-0.035 0.015,-0.031 0.016,-0.039 0.016,-0.035 0.015,-0.039 0.012,-0.036 0.012,-0.043 0.008,-0.039 0.011,-0.043 0.008,-0.043 0.008,-0.086 0.004,-0.05 0,-0.047 c 0,-0.723 -0.5,-1.293 -1.606,-1.293 -1.199,0 -1.711,0.812 -1.984,2.019 -0.039,0.184 -0.055,0.243 -0.195,0.243 -0.188,0 -0.188,-0.098 -0.188,-0.356 l 0,-1.879 c 0,-0.242 0,-0.34 0.156,-0.34 0.075,0 0.086,0.012 0.36,0.285 0.023,0.028 0.023,0.055 0.285,0.325 0.621,-0.598 1.265,-0.61 1.566,-0.61 1.633,0 2.289,0.957 2.289,1.977 0,0.754 -0.425,1.183 -0.597,1.351 -0.469,0.457 -1.028,0.575 -1.625,0.684 -0.797,0.16 -1.75,0.344 -1.75,1.168 0,0.5 0.371,1.082 1.593,1.082 1.567,0 1.637,-1.281 1.665,-1.723 0.019,-0.129 0.144,-0.129 0.171,-0.129 0.188,0 0.188,0.071 0.188,0.344 l 0,1.438 c 0,0.242 0,0.34 -0.156,0.34 -0.075,0 -0.102,0 -0.289,-0.168 -0.04,-0.063 -0.18,-0.184 -0.243,-0.231 -0.539,0.399 -1.121,0.399 -1.336,0.399 -1.738,0 -2.277,-0.954 -2.277,-1.75 0,-0.497 0.231,-0.899 0.613,-1.211 0.453,-0.368 0.856,-0.453 1.879,-0.653 z"
         style="fill:#000000;fill-opacity:1;fill-rule:nonzero;stroke:none"
         id="path352" /><path
         d="m 161.555,0.162 0,0.031 -0.008,0.008 0,0.003 -0.004,0.008 -0.004,0.004 -0.004,0.012 -0.012,0.012 -0.003,0.007 -0.008,0.012 -0.008,0.008 -0.008,0.012 -0.004,0.004 -0.004,0.007 -0.008,0.004 0,0.008 -0.007,0.004 -0.004,0.008 -0.008,0.008 -0.008,0.004 -0.004,0.007 -0.015,0.016 -0.004,0.008 -0.012,0.008 -0.008,0.011 -0.023,0.024 -0.012,0.008 -0.008,0.011 -0.043,0.043 -0.008,0.012 c -1.777,1.793 -2.234,4.48 -2.234,6.656 0,2.481 0.539,4.961 2.293,6.735 0.18,0.172 0.18,0.203 0.18,0.246 0,0.097 -0.051,0.136 -0.137,0.136 -0.145,0 -1.426,-0.964 -2.266,-2.769 -0.722,-1.57 -0.894,-3.149 -0.894,-4.348 0,-1.109 0.156,-2.828 0.937,-4.437 0.852,-1.754 2.078,-2.676 2.223,-2.676 0.086,0 0.137,0.039 0.137,0.145 z"
         style="fill:#000000;fill-opacity:1;fill-rule:nonzero;stroke:none"
         id="path354" /><path
         d="m 169.754,8.415 0.137,0.032 0.132,0.035 0.137,0.039 0.141,0.043 0.137,0.047 0.14,0.051 0.137,0.054 0.133,0.055 0.136,0.062 0.133,0.067 0.258,0.14 0.129,0.079 0.121,0.078 0.117,0.086 0.113,0.082 0.114,0.089 0.105,0.094 0.102,0.094 0.187,0.203 0.086,0.106 0.074,0.105 0.075,0.113 0.062,0.114 0.055,0.117 0.055,0.121 0.039,0.121 0.031,0.129 0.023,0.129 0.016,0.129 0.004,0.136 c 0,1.223 -1.281,2.133 -3.145,2.133 l -4.054,0 c -0.289,0 -0.414,0 -0.414,-0.285 0,-0.156 0.125,-0.156 0.398,-0.156 0.027,0 0.301,0 0.543,-0.028 0.25,-0.031 0.383,-0.046 0.383,-0.23 0,-0.055 -0.016,-0.102 -0.059,-0.27 l -1.906,-7.644 c -0.145,-0.555 -0.168,-0.668 -1.297,-0.668 -0.254,0 -0.383,0 -0.383,-0.285 0,-0.156 0.172,-0.156 0.199,-0.156 0.399,0 1.399,0.046 1.793,0.046 0.399,0 1.411,-0.046 1.805,-0.046 0.117,0 0.289,0 0.289,0.285 0,0.156 -0.129,0.156 -0.394,0.156 -0.532,0 -0.93,0 -0.93,0.254 0,0.086 0.027,0.156 0.043,0.242 l 0.937,3.77 1.696,0 -0.012,0.316 -1.598,0 0.926,3.715 c 0.086,0.34 0.129,0.484 0.399,0.531 0.128,0.012 0.586,0.012 0.867,0.012 1.011,0 2.593,0 2.593,-1.41 0,-0.485 -0.23,-1.465 -0.785,-2.02 -0.367,-0.371 -1.121,-0.828 -2.402,-0.828 l 0.012,-0.316 c 1.297,0 1.551,-0.793 1.551,-1.293 0,-0.215 -0.114,-0.653 -0.2,-0.985 -0.097,-0.394 -0.226,-0.922 -0.226,-1.207 0,-1.535 1.707,-1.535 1.894,-1.535 1.211,0 1.703,1.438 1.703,1.637 0,0.168 -0.156,0.168 -0.168,0.168 -0.129,0 -0.156,-0.102 -0.183,-0.199 -0.356,-1.055 -0.969,-1.293 -1.297,-1.293 -0.469,0 -0.57,0.312 -0.57,0.871 0,0.437 0.086,1.164 0.144,1.621 0.027,0.199 0.059,0.469 0.059,0.668 0,1.093 -0.953,1.535 -1.34,1.679 z"
         style="fill:#000000;fill-opacity:1;fill-rule:nonzero;stroke:none"
         id="path356" /><path
         d="m 177.379,7.13 0,0.11 -0.004,0.109 0,0.113 -0.004,0.117 -0.012,0.239 -0.015,0.25 -0.024,0.265 -0.031,0.27 -0.039,0.277 -0.047,0.289 -0.055,0.293 -0.066,0.293 -0.078,0.301 -0.086,0.301 -0.102,0.308 -0.113,0.305 -0.058,0.152 -0.067,0.149 -0.066,0.152 -0.071,0.153 c -0.855,1.746 -2.078,2.671 -2.218,2.671 -0.082,0 -0.145,-0.05 -0.145,-0.136 0,-0.043 0,-0.074 0.27,-0.328 1.398,-1.407 2.207,-3.672 2.207,-6.653 0,-2.429 -0.524,-4.933 -2.293,-6.73 -0.184,-0.168 -0.184,-0.199 -0.184,-0.238 0,-0.086 0.063,-0.145 0.145,-0.145 0.14,0 1.418,0.969 2.261,2.773 0.727,1.567 0.895,3.145 0.895,4.34 z"
         style="fill:#000000;fill-opacity:1;fill-rule:nonzero;stroke:none"
         id="path358" /></g></g></svg>