<?xml version="1.0" encoding="UTF-8" standalone="no"?>
<!-- Created with Inkscape (http://www.inkscape.org/) -->

<svg
   xmlns:dc="http://purl.org/dc/elements/1.1/"
   xmlns:cc="http://creativecommons.org/ns#"
   xmlns:rdf="http://www.w3.org/1999/02/22-rdf-syntax-ns#"
   xmlns:svg="http://www.w3.org/2000/svg"
   xmlns="http://www.w3.org/2000/svg"
   xmlns:sodipodi="http://sodipodi.sourceforge.net/DTD/sodipodi-0.dtd"
   xmlns:inkscape="http://www.inkscape.org/namespaces/inkscape"
   id="svg2"
   version="1.1"
   inkscape:version="0.47 r22583"
   width="256.4585"
   height="218.23378"
   xml:space="preserve"
   sodipodi:docname="swed_np_sc_num_prim.pdf"><metadata
     id="metadata8"><rdf:RDF><cc:Work
         rdf:about=""><dc:format>image/svg+xml</dc:format><dc:type
           rdf:resource="http://purl.org/dc/dcmitype/StillImage" /><dc:title></dc:title></cc:Work></rdf:RDF></metadata><defs
     id="defs6"><inkscape:perspective
       sodipodi:type="inkscape:persp3d"
       inkscape:vp_x="0 : 0.5 : 1"
       inkscape:vp_y="0 : 1000 : 0"
       inkscape:vp_z="1 : 0.5 : 1"
       inkscape:persp3d-origin="0.5 : 0.33333333 : 1"
       id="perspective10" /><clipPath
       clipPathUnits="userSpaceOnUse"
       id="clipPath20"><path
         d="m 8.33203,2.5 2051.66997,0 0,1597.5 -2051.66997,0 0,-1597.5 z"
         id="path22" /></clipPath><clipPath
       clipPathUnits="userSpaceOnUse"
       id="clipPath154"><path
         d="m 175.832,1512.5 0,-1389.168 1761.668,0 0,1389.168 -1761.668,0 z"
         id="path156" /></clipPath><inkscape:perspective
       id="perspective2937"
       inkscape:persp3d-origin="0.5 : 0.33333333 : 1"
       inkscape:vp_z="1 : 0.5 : 1"
       inkscape:vp_y="0 : 1000 : 0"
       inkscape:vp_x="0 : 0.5 : 1"
       sodipodi:type="inkscape:persp3d" /></defs><sodipodi:namedview
     pagecolor="#ffffff"
     bordercolor="#666666"
     borderopacity="1"
     objecttolerance="10"
     gridtolerance="10"
     guidetolerance="10"
     inkscape:pageopacity="0"
     inkscape:pageshadow="2"
     inkscape:window-width="1680"
     inkscape:window-height="974"
     id="namedview4"
     showgrid="false"
     inkscape:zoom="1.18"
     inkscape:cx="127.7085"
     inkscape:cy="116.53887"
     inkscape:window-x="0"
     inkscape:window-y="25"
     inkscape:window-maximized="1"
     inkscape:current-layer="g12" /><g
     id="g12"
     inkscape:groupmode="layer"
     inkscape:label="swed_np_sc_num_prim"
     transform="matrix(1.25,0,0,-1.25,-1.0415037,200)"><g
       id="g14"
       transform="scale(0.1,0.1)"><g
         id="g16"><g
           id="g18"
           clip-path="url(#clipPath20)"><path
             d="m 0,0 2060,0 0,1600 L 0,1600 0,0 z"
             style="fill:#ffffff;fill-opacity:1;fill-rule:nonzero;stroke:none"
             id="path24" /><path
             d="m 175.832,124.168 1760.84,0 0,1388.33 -1760.84,0 0,-1388.33 z"
             style="fill:#ffffff;fill-opacity:1;fill-rule:evenodd;stroke:none"
             id="path26" /><path
             d="m 175.832,124.168 0,1388.332 1760.838,0 0,-1388.332 -1760.838,0"
             style="fill:none;stroke:#ffffff;stroke-width:5;stroke-linecap:butt;stroke-linejoin:round;stroke-miterlimit:10;stroke-opacity:1;stroke-dasharray:none"
             id="path28" /><path
             d="m 175.832,124.168 1760.838,0"
             style="fill:none;stroke:#000000;stroke-width:5;stroke-linecap:butt;stroke-linejoin:round;stroke-miterlimit:10;stroke-opacity:1;stroke-dasharray:none"
             id="path30" /><path
             d="m 175.832,1512.5 1760.838,0"
             style="fill:none;stroke:#000000;stroke-width:5;stroke-linecap:butt;stroke-linejoin:round;stroke-miterlimit:10;stroke-opacity:1;stroke-dasharray:none"
             id="path32" /><path
             d="m 175.832,124.168 0,1388.332"
             style="fill:none;stroke:#000000;stroke-width:5;stroke-linecap:butt;stroke-linejoin:round;stroke-miterlimit:10;stroke-opacity:1;stroke-dasharray:none"
             id="path34" /><path
             d="m 1936.67,124.168 0,1388.332"
             style="fill:none;stroke:#000000;stroke-width:5;stroke-linecap:butt;stroke-linejoin:round;stroke-miterlimit:10;stroke-opacity:1;stroke-dasharray:none"
             id="path36" /><path
             d="m 175.832,124.168 1760.838,0"
             style="fill:none;stroke:#000000;stroke-width:5;stroke-linecap:butt;stroke-linejoin:round;stroke-miterlimit:10;stroke-opacity:1;stroke-dasharray:none"
             id="path38" /><path
             d="m 175.832,124.168 0,1388.332"
             style="fill:none;stroke:#000000;stroke-width:5;stroke-linecap:butt;stroke-linejoin:round;stroke-miterlimit:10;stroke-opacity:1;stroke-dasharray:none"
             id="path40" /><path
             d="m 175.832,124.168 0,18.332"
             style="fill:none;stroke:#000000;stroke-width:5;stroke-linecap:butt;stroke-linejoin:round;stroke-miterlimit:10;stroke-opacity:1;stroke-dasharray:none"
             id="path42" /><path
             d="m 175.832,1512.5 0,-17.5"
             style="fill:none;stroke:#000000;stroke-width:5;stroke-linecap:butt;stroke-linejoin:round;stroke-miterlimit:10;stroke-opacity:1;stroke-dasharray:none"
             id="path44" /><g
             id="g46"
             transform="scale(10,10)"><text
               transform="matrix(1,0,0,-1,14.8332,0.333203)"
               id="text48"><tspan
                 style="font-size:10px;font-variant:normal;font-weight:normal;writing-mode:lr-tb;fill:#000000;fill-opacity:1;fill-rule:nonzero;stroke:none;font-family:Helvetica;-inkscape-font-specification:Helvetica"
                 x="0"
                 y="0"
                 id="tspan50">0</tspan></text>
</g><path
             d="m 615.832,124.168 0,18.332"
             style="fill:none;stroke:#000000;stroke-width:5;stroke-linecap:butt;stroke-linejoin:round;stroke-miterlimit:10;stroke-opacity:1;stroke-dasharray:none"
             id="path52" /><path
             d="m 615.832,1512.5 0,-17.5"
             style="fill:none;stroke:#000000;stroke-width:5;stroke-linecap:butt;stroke-linejoin:round;stroke-miterlimit:10;stroke-opacity:1;stroke-dasharray:none"
             id="path54" /><g
             id="g56"
             transform="scale(10,10)"><text
               transform="matrix(1,0,0,-1,53.25,0.333203)"
               id="text58"><tspan
                 style="font-size:10px;font-variant:normal;font-weight:normal;writing-mode:lr-tb;fill:#000000;fill-opacity:1;fill-rule:nonzero;stroke:none;font-family:Helvetica;-inkscape-font-specification:Helvetica"
                 x="0 5.5599999 11.12"
                 y="0"
                 sodipodi:role="line"
                 id="tspan60">100</tspan></text>
</g><path
             d="m 1055.83,124.168 0,18.332"
             style="fill:none;stroke:#000000;stroke-width:5;stroke-linecap:butt;stroke-linejoin:round;stroke-miterlimit:10;stroke-opacity:1;stroke-dasharray:none"
             id="path62" /><path
             d="m 1055.83,1512.5 0,-17.5"
             style="fill:none;stroke:#000000;stroke-width:5;stroke-linecap:butt;stroke-linejoin:round;stroke-miterlimit:10;stroke-opacity:1;stroke-dasharray:none"
             id="path64" /><g
             id="g66"
             transform="scale(10,10)"><text
               transform="matrix(1,0,0,-1,97.25,0.333203)"
               id="text68"><tspan
                 style="font-size:10px;font-variant:normal;font-weight:normal;writing-mode:lr-tb;fill:#000000;fill-opacity:1;fill-rule:nonzero;stroke:none;font-family:Helvetica;-inkscape-font-specification:Helvetica"
                 x="0 5.5599999 11.12"
                 y="0"
                 sodipodi:role="line"
                 id="tspan70">200</tspan></text>
</g><path
             d="m 1495.83,124.168 0,18.332"
             style="fill:none;stroke:#000000;stroke-width:5;stroke-linecap:butt;stroke-linejoin:round;stroke-miterlimit:10;stroke-opacity:1;stroke-dasharray:none"
             id="path72" /><path
             d="m 1495.83,1512.5 0,-17.5"
             style="fill:none;stroke:#000000;stroke-width:5;stroke-linecap:butt;stroke-linejoin:round;stroke-miterlimit:10;stroke-opacity:1;stroke-dasharray:none"
             id="path74" /><g
             id="g76"
             transform="scale(10,10)"><text
               transform="matrix(1,0,0,-1,141.25,0.333203)"
               id="text78"><tspan
                 style="font-size:10px;font-variant:normal;font-weight:normal;writing-mode:lr-tb;fill:#000000;fill-opacity:1;fill-rule:nonzero;stroke:none;font-family:Helvetica;-inkscape-font-specification:Helvetica"
                 x="0 5.5599999 11.12"
                 y="0"
                 sodipodi:role="line"
                 id="tspan80">300</tspan></text>
</g><path
             d="m 1936.67,124.168 0,18.332"
             style="fill:none;stroke:#000000;stroke-width:5;stroke-linecap:butt;stroke-linejoin:round;stroke-miterlimit:10;stroke-opacity:1;stroke-dasharray:none"
             id="path82" /><path
             d="m 1936.67,1512.5 0,-17.5"
             style="fill:none;stroke:#000000;stroke-width:5;stroke-linecap:butt;stroke-linejoin:round;stroke-miterlimit:10;stroke-opacity:1;stroke-dasharray:none"
             id="path84" /><g
             id="g86"
             transform="scale(10,10)"><text
               transform="matrix(1,0,0,-1,185.333,0.333203)"
               id="text88"><tspan
                 style="font-size:10px;font-variant:normal;font-weight:normal;writing-mode:lr-tb;fill:#000000;fill-opacity:1;fill-rule:nonzero;stroke:none;font-family:Helvetica;-inkscape-font-specification:Helvetica"
                 x="0 5.5599999 11.12"
                 y="0"
                 sodipodi:role="line"
                 id="tspan90">400</tspan></text>
</g><path
             d="m 175.832,124.168 17.5,0"
             style="fill:none;stroke:#000000;stroke-width:5;stroke-linecap:butt;stroke-linejoin:round;stroke-miterlimit:10;stroke-opacity:1;stroke-dasharray:none"
             id="path92" /><path
             d="m 1936.67,124.168 -18.34,0"
             style="fill:none;stroke:#000000;stroke-width:5;stroke-linecap:butt;stroke-linejoin:round;stroke-miterlimit:10;stroke-opacity:1;stroke-dasharray:none"
             id="path94" /><g
             id="g96"
             transform="scale(10,10)"><text
               transform="matrix(1,0,0,-1,9.1668,8.75)"
               id="text98"><tspan
                 style="font-size:10px;font-variant:normal;font-weight:normal;writing-mode:lr-tb;fill:#000000;fill-opacity:1;fill-rule:nonzero;stroke:none;font-family:Helvetica;-inkscape-font-specification:Helvetica"
                 x="0"
                 y="0"
                 id="tspan100">0</tspan></text>
</g><path
             d="m 175.832,471.668 17.5,0"
             style="fill:none;stroke:#000000;stroke-width:5;stroke-linecap:butt;stroke-linejoin:round;stroke-miterlimit:10;stroke-opacity:1;stroke-dasharray:none"
             id="path102" /><path
             d="m 1936.67,471.668 -18.34,0"
             style="fill:none;stroke:#000000;stroke-width:5;stroke-linecap:butt;stroke-linejoin:round;stroke-miterlimit:10;stroke-opacity:1;stroke-dasharray:none"
             id="path104" /><g
             id="g106"
             transform="scale(10,10)"><text
               transform="matrix(1,0,0,-1,0.833203,43.5)"
               id="text108"><tspan
                 style="font-size:10px;font-variant:normal;font-weight:normal;writing-mode:lr-tb;fill:#000000;fill-opacity:1;fill-rule:nonzero;stroke:none;font-family:Helvetica;-inkscape-font-specification:Helvetica"
                 x="0 5.5599999 8.3400002"
                 y="0"
                 sodipodi:role="line"
                 id="tspan110">0.1</tspan></text>
</g><path
             d="m 175.832,818.332 17.5,0"
             style="fill:none;stroke:#000000;stroke-width:5;stroke-linecap:butt;stroke-linejoin:round;stroke-miterlimit:10;stroke-opacity:1;stroke-dasharray:none"
             id="path112" /><path
             d="m 1936.67,818.332 -18.34,0"
             style="fill:none;stroke:#000000;stroke-width:5;stroke-linecap:butt;stroke-linejoin:round;stroke-miterlimit:10;stroke-opacity:1;stroke-dasharray:none"
             id="path114" /><g
             id="g116"
             transform="scale(10,10)"><text
               transform="matrix(1,0,0,-1,0.833203,78.1668)"
               id="text118"><tspan
                 style="font-size:10px;font-variant:normal;font-weight:normal;writing-mode:lr-tb;fill:#000000;fill-opacity:1;fill-rule:nonzero;stroke:none;font-family:Helvetica;-inkscape-font-specification:Helvetica"
                 x="0 5.5599999 8.3400002"
                 y="0"
                 sodipodi:role="line"
                 id="tspan120">0.2</tspan></text>
</g><path
             d="m 175.832,1165.83 17.5,0"
             style="fill:none;stroke:#000000;stroke-width:5;stroke-linecap:butt;stroke-linejoin:round;stroke-miterlimit:10;stroke-opacity:1;stroke-dasharray:none"
             id="path122" /><path
             d="m 1936.67,1165.83 -18.34,0"
             style="fill:none;stroke:#000000;stroke-width:5;stroke-linecap:butt;stroke-linejoin:round;stroke-miterlimit:10;stroke-opacity:1;stroke-dasharray:none"
             id="path124" /><g
             id="g126"
             transform="scale(10,10)"><text
               transform="matrix(1,0,0,-1,0.833203,112.917)"
               id="text128"><tspan
                 style="font-size:10px;font-variant:normal;font-weight:normal;writing-mode:lr-tb;fill:#000000;fill-opacity:1;fill-rule:nonzero;stroke:none;font-family:Helvetica;-inkscape-font-specification:Helvetica"
                 x="0 5.5599999 8.3400002"
                 y="0"
                 sodipodi:role="line"
                 id="tspan130">0.3</tspan></text>
</g><path
             d="m 175.832,1512.5 17.5,0"
             style="fill:none;stroke:#000000;stroke-width:5;stroke-linecap:butt;stroke-linejoin:round;stroke-miterlimit:10;stroke-opacity:1;stroke-dasharray:none"
             id="path132" /><path
             d="m 1936.67,1512.5 -18.34,0"
             style="fill:none;stroke:#000000;stroke-width:5;stroke-linecap:butt;stroke-linejoin:round;stroke-miterlimit:10;stroke-opacity:1;stroke-dasharray:none"
             id="path134" /><g
             id="g136"
             transform="scale(10,10)"><text
               transform="matrix(1,0,0,-1,0.833203,147.583)"
               id="text138"><tspan
                 style="font-size:10px;font-variant:normal;font-weight:normal;writing-mode:lr-tb;fill:#000000;fill-opacity:1;fill-rule:nonzero;stroke:none;font-family:Helvetica;-inkscape-font-specification:Helvetica"
                 x="0 5.5599999 8.3400002"
                 y="0"
                 sodipodi:role="line"
                 id="tspan140">0.4</tspan></text>
</g><path
             d="m 175.832,124.168 1760.838,0"
             style="fill:none;stroke:#000000;stroke-width:5;stroke-linecap:butt;stroke-linejoin:round;stroke-miterlimit:10;stroke-opacity:1;stroke-dasharray:none"
             id="path142" /><path
             d="m 175.832,1512.5 1760.838,0"
             style="fill:none;stroke:#000000;stroke-width:5;stroke-linecap:butt;stroke-linejoin:round;stroke-miterlimit:10;stroke-opacity:1;stroke-dasharray:none"
             id="path144" /><path
             d="m 175.832,124.168 0,1388.332"
             style="fill:none;stroke:#000000;stroke-width:5;stroke-linecap:butt;stroke-linejoin:round;stroke-miterlimit:10;stroke-opacity:1;stroke-dasharray:none"
             id="path146" /><path
             d="m 1936.67,124.168 0,1388.332"
             style="fill:none;stroke:#000000;stroke-width:5;stroke-linecap:butt;stroke-linejoin:round;stroke-miterlimit:10;stroke-opacity:1;stroke-dasharray:none"
             id="path148" /></g></g><g
         id="g150"><g
           id="g152"
           clip-path="url(#clipPath154)"><path
             d="m 190,124.168 117.5,0 0,3.33203 -117.5,0 0,-3.33203 z"
             style="fill:#00008f;fill-opacity:1;fill-rule:evenodd;stroke:none"
             id="path158" /><path
             d="m 190,124.168 0,3.332 117.5,0 0,-3.332 -117.5,0"
             style="fill:none;stroke:#000000;stroke-width:5;stroke-linecap:butt;stroke-linejoin:round;stroke-miterlimit:10;stroke-opacity:1;stroke-dasharray:none"
             id="path160" /><path
             d="m 336.668,124.168 117.5,0 0,10.832 -117.5,0 0,-10.832 z"
             style="fill:#00008f;fill-opacity:1;fill-rule:evenodd;stroke:none"
             id="path162" /><path
             d="m 336.668,124.168 0,10.832 117.5,0 0,-10.832 -117.5,0"
             style="fill:none;stroke:#000000;stroke-width:5;stroke-linecap:butt;stroke-linejoin:round;stroke-miterlimit:10;stroke-opacity:1;stroke-dasharray:none"
             id="path164" /><path
             d="m 483.332,124.168 117.5,0 0,215 -117.5,0 0,-215 z"
             style="fill:#00008f;fill-opacity:1;fill-rule:evenodd;stroke:none"
             id="path166" /><path
             d="m 483.332,124.168 0,215 117.5,0 0,-215 -117.5,0"
             style="fill:none;stroke:#000000;stroke-width:5;stroke-linecap:butt;stroke-linejoin:round;stroke-miterlimit:10;stroke-opacity:1;stroke-dasharray:none"
             id="path168" /><path
             d="m 630,124.168 117.5,0 0,1181.66 -117.5,0 0,-1181.66 z"
             style="fill:#00008f;fill-opacity:1;fill-rule:evenodd;stroke:none"
             id="path170" /><path
             d="m 630,124.168 0,1181.662 117.5,0 0,-1181.662 -117.5,0"
             style="fill:none;stroke:#000000;stroke-width:5;stroke-linecap:butt;stroke-linejoin:round;stroke-miterlimit:10;stroke-opacity:1;stroke-dasharray:none"
             id="path172" /><path
             d="m 776.668,124.168 116.664,0 0,1385 -116.664,0 0,-1385 z"
             style="fill:#00008f;fill-opacity:1;fill-rule:evenodd;stroke:none"
             id="path174" /><path
             d="m 776.668,124.168 0,1385.002 116.664,0 0,-1385.002 -116.664,0"
             style="fill:none;stroke:#000000;stroke-width:5;stroke-linecap:butt;stroke-linejoin:round;stroke-miterlimit:10;stroke-opacity:1;stroke-dasharray:none"
             id="path176" /><path
             d="m 923.332,124.168 116.668,0 0,500.832 -116.668,0 0,-500.832 z"
             style="fill:#00008f;fill-opacity:1;fill-rule:evenodd;stroke:none"
             id="path178" /><path
             d="m 923.332,124.168 0,500.832 116.668,0 0,-500.832 -116.668,0"
             style="fill:none;stroke:#000000;stroke-width:5;stroke-linecap:butt;stroke-linejoin:round;stroke-miterlimit:10;stroke-opacity:1;stroke-dasharray:none"
             id="path180" /><path
             d="m 1070,124.168 116.668,0 0,145.832 -116.668,0 0,-145.832 z"
             style="fill:#00008f;fill-opacity:1;fill-rule:evenodd;stroke:none"
             id="path182" /><path
             d="m 1070,124.168 0,145.832 116.67,0 0,-145.832 -116.67,0"
             style="fill:none;stroke:#000000;stroke-width:5;stroke-linecap:butt;stroke-linejoin:round;stroke-miterlimit:10;stroke-opacity:1;stroke-dasharray:none"
             id="path184" /><path
             d="m 1215.83,124.168 117.5,0 0,18.332 -117.5,0 0,-18.332 z"
             style="fill:#00008f;fill-opacity:1;fill-rule:evenodd;stroke:none"
             id="path186" /><path
             d="m 1215.83,124.168 0,18.332 117.5,0 0,-18.332 -117.5,0"
             style="fill:none;stroke:#000000;stroke-width:5;stroke-linecap:butt;stroke-linejoin:round;stroke-miterlimit:10;stroke-opacity:1;stroke-dasharray:none"
             id="path188" /><path
             d="m 1362.5,124.168 117.5,0 0,10.832 -117.5,0 0,-10.832 z"
             style="fill:#00008f;fill-opacity:1;fill-rule:evenodd;stroke:none"
             id="path190" /><path
             d="m 1362.5,124.168 0,10.832 117.5,0 0,-10.832 -117.5,0"
             style="fill:none;stroke:#000000;stroke-width:5;stroke-linecap:butt;stroke-linejoin:round;stroke-miterlimit:10;stroke-opacity:1;stroke-dasharray:none"
             id="path192" /><path
             d="m 1509.17,124.168 117.5,0 0,4.16406 -117.5,0 0,-4.16406 z"
             style="fill:#00008f;fill-opacity:1;fill-rule:evenodd;stroke:none"
             id="path194" /><path
             d="m 1509.17,124.168 0,4.164 117.5,0 0,-4.164 -117.5,0"
             style="fill:none;stroke:#000000;stroke-width:5;stroke-linecap:butt;stroke-linejoin:round;stroke-miterlimit:10;stroke-opacity:1;stroke-dasharray:none"
             id="path196" /><path
             d="m 175.832,124.168 1760.838,0"
             style="fill:none;stroke:#000000;stroke-width:5;stroke-linecap:butt;stroke-linejoin:round;stroke-miterlimit:10;stroke-opacity:1;stroke-dasharray:none"
             id="path198" /></g></g></g><g
       transform="translate(-8.5090254,-14.605026)"
       id="g302"><path
         d="m 41.461,9.709 -0.023,0.031 -0.012,0.012 -0.008,0.016 -0.012,0.011 -0.015,0.024 -0.036,0.035 -0.011,0.008 -0.008,0.004 -0.008,0.007 -0.012,0.004 -0.007,0.008 -0.024,0.008 -0.008,0.004 -0.011,0 -0.016,0.004 -0.012,0.004 -0.031,0 -0.016,0.004 -0.035,0 -0.019,0.004 -2.512,0 0,-0.442 0.418,0 c 0.211,0 0.496,-0.012 0.711,-0.027 0.324,-0.047 0.34,-0.059 0.34,-0.332 l 0,-7.43 c 0,-0.383 0,-1.051 -1.469,-1.051 l 0,-0.441 c 0.5,0.012 1.199,0.047 1.668,0.047 0.473,0 1.168,-0.035 1.664,-0.047 l 0,0.441 c -1.465,0 -1.465,0.668 -1.465,1.051 l 0,7.406 C 40.562,8.998 40.578,8.986 40.637,8.9 l 5.808,-8.543 c 0.125,-0.171 0.141,-0.183 0.239,-0.183 0.203,0 0.203,0.098 0.203,0.371 l 0,7.855 c 0,0.383 0,1.055 1.465,1.055 l 0,0.442 c -0.5,-0.016 -1.2,-0.047 -1.668,-0.047 -0.469,0 -1.168,0.031 -1.664,0.047 l 0,-0.442 c 1.464,0 1.464,-0.672 1.464,-1.055 l 0,-6.082 -5.023,7.391 z"
         style="fill:#000000;fill-opacity:1;fill-rule:nonzero;stroke:none"
         id="path304" /><path
         d="m 54.387,1.299 0,-1.281 2.047,0.156 0,0.441 c -0.993,0 -1.11,0.098 -1.11,0.797 l 0,5.051 -2.094,-0.156 0,-0.442 c 1,0 1.11,-0.097 1.11,-0.793 l 0,-2.539 c 0,-1.234 -0.68,-2.203 -1.723,-2.203 -1.191,0 -1.246,0.668 -1.246,1.41 l 0,4.723 -2.094,-0.156 0,-0.442 c 1.11,0 1.11,-0.039 1.11,-1.308 l 0,-2.137 c 0,-1.109 0,-2.402 2.16,-2.402 0.801,0 1.426,0.394 1.84,1.281 z"
         style="fill:#000000;fill-opacity:1;fill-rule:nonzero;stroke:none"
         id="path306" /><path
         d="m 58.309,5.072 0,-3.82 c 0,-0.637 -0.161,-0.637 -1.114,-0.637 l 0,-0.441 c 0.5,0.012 1.223,0.047 1.606,0.047 0.371,0 1.113,-0.035 1.594,-0.047 l 0,0.441 c -0.95,0 -1.106,0 -1.106,0.637 l 0,2.621 c 0,1.484 1.008,2.277 1.922,2.277 0.894,0 1.051,-0.769 1.051,-1.578 l 0,-3.32 c 0,-0.637 -0.157,-0.637 -1.114,-0.637 l 0,-0.441 c 0.5,0.012 1.231,0.047 1.614,0.047 0.371,0 1.109,-0.035 1.593,-0.047 l 0,0.441 c -0.953,0 -1.113,0 -1.113,0.637 l 0,2.621 c 0,1.484 1.016,2.277 1.926,2.277 0.898,0 1.055,-0.769 1.055,-1.578 l 0,-3.32 c 0,-0.637 -0.157,-0.637 -1.114,-0.637 l 0,-0.441 c 0.496,0.012 1.223,0.047 1.61,0.047 0.367,0 1.109,-0.035 1.59,-0.047 l 0,0.441 c -0.735,0 -1.09,0 -1.106,0.43 l 0,2.719 c 0,1.222 0,1.664 -0.441,2.172 -0.2,0.246 -0.668,0.527 -1.496,0.527 -1.196,0 -1.821,-0.852 -2.063,-1.391 -0.199,1.235 -1.254,1.391 -1.894,1.391 -1.039,0 -1.707,-0.613 -2.106,-1.488 l 0,1.488 -2.008,-0.156 0,-0.442 c 0.996,0 1.114,-0.097 1.114,-0.793 z"
         style="fill:#000000;fill-opacity:1;fill-rule:nonzero;stroke:none"
         id="path308" /><path
         d="m 70.637,5.537 0,4.516 -2.051,-0.156 0,-0.442 c 0.996,0 1.113,-0.098 1.113,-0.801 l 0,-8.48 0.356,0 c 0.015,0.012 0.125,0.215 0.511,0.883 0.215,-0.328 0.813,-1.039 1.868,-1.039 L 72.371,0.33 c -0.637,0 -1.148,0.344 -1.488,0.867 -0.203,0.301 -0.203,0.34 -0.203,0.598 l 0,2.934 c 0,0.269 0,0.285 0.16,0.511 0.551,0.797 1.34,0.91 1.676,0.91 0.644,0 1.156,-0.371 1.496,-0.91 0.371,-0.586 0.414,-1.394 0.414,-1.976 0,-0.528 -0.031,-1.383 -0.442,-2.024 C 73.688,0.799 73.148,0.33 72.371,0.33 l 0.063,-0.312 c 1.691,0 3.171,1.394 3.171,3.23 0,1.809 -1.394,3.215 -3.019,3.215 -1.106,0 -1.723,-0.668 -1.949,-0.926 z"
         style="fill:#000000;fill-opacity:1;fill-rule:nonzero;stroke:none"
         id="path310" /><path
         d="m 78.102,3.463 0.015,0.301 c 0.082,2.117 1.278,2.472 1.766,2.472 1.465,0 1.605,-1.922 1.605,-2.472 l -3.371,0 -0.015,-0.301 3.972,0 c 0.313,0 0.356,0 0.356,0.301 0,1.402 -0.77,2.785 -2.547,2.785 -1.649,0 -2.965,-1.465 -2.965,-3.246 0,-1.906 1.496,-3.285 3.133,-3.285 1.738,0 2.379,1.578 2.379,1.847 0,0.141 -0.114,0.172 -0.188,0.172 -0.125,0 -0.152,-0.082 -0.183,-0.199 -0.497,-1.465 -1.778,-1.465 -1.922,-1.465 -0.711,0 -1.278,0.426 -1.606,0.953 -0.429,0.68 -0.429,1.625 -0.429,2.137 z"
         style="fill:#000000;fill-opacity:1;fill-rule:nonzero;stroke:none"
         id="path312" /><path
         d="m 85.203,4.9 0,1.563 -1.976,-0.156 0,-0.442 c 0.996,0 1.113,-0.097 1.113,-0.793 l 0,-3.82 c 0,-0.637 -0.16,-0.637 -1.113,-0.637 l 0,-0.441 c 0.558,0.012 1.222,0.047 1.625,0.047 0.566,0 1.238,0 1.808,-0.047 l 0,0.441 -0.301,0 c -1.05,0 -1.082,0.157 -1.082,0.668 l 0,2.192 c 0,1.406 0.598,2.675 1.68,2.675 0.102,0 0.125,0 0.16,-0.015 -0.043,-0.012 -0.332,-0.18 -0.332,-0.551 0,-0.402 0.297,-0.609 0.617,-0.609 0.254,0 0.61,0.168 0.61,0.621 0,0.457 -0.438,0.867 -1.055,0.867 -1.039,0 -1.551,-0.949 -1.754,-1.563 z"
         style="fill:#000000;fill-opacity:1;fill-rule:nonzero;stroke:none"
         id="path314" /><path
         d="m 99.855,3.221 -0.003,0.168 -0.012,0.168 -0.024,0.164 -0.027,0.164 -0.035,0.16 -0.043,0.156 -0.051,0.156 -0.055,0.149 -0.062,0.148 -0.07,0.141 -0.078,0.141 -0.083,0.136 -0.089,0.129 -0.094,0.125 -0.098,0.125 -0.105,0.113 -0.11,0.114 -0.113,0.105 -0.121,0.098 -0.121,0.094 -0.129,0.086 -0.133,0.082 -0.137,0.074 -0.136,0.066 -0.141,0.063 -0.148,0.051 -0.149,0.046 -0.148,0.036 -0.156,0.031 -0.157,0.019 -0.16,0.016 -0.16,0.004 -0.012,-0.313 c 0.621,0 1.235,-0.316 1.606,-0.925 0.371,-0.614 0.371,-1.438 0.371,-1.977 0,-0.516 0,-1.281 -0.313,-1.906 -0.312,-0.645 -0.937,-1.055 -1.652,-1.055 -0.613,0 -1.238,0.301 -1.621,0.953 -0.356,0.629 -0.356,1.492 -0.356,2.008 0,0.555 0,1.32 0.34,1.949 0.387,0.653 1.055,0.953 1.625,0.953 l 0.012,0.313 c -1.777,0 -3.16,-1.551 -3.16,-3.328 0,-1.84 1.484,-3.203 3.148,-3.203 1.723,0 3.16,1.394 3.16,3.203 z"
         style="fill:#000000;fill-opacity:1;fill-rule:nonzero;stroke:none"
         id="path316" /><path
         d="m 102.77,6.307 0,1.652 c 0,1.254 0.683,1.938 1.308,1.938 0.047,0 0.262,0 0.473,-0.102 -0.172,-0.055 -0.426,-0.242 -0.426,-0.598 0,-0.328 0.227,-0.613 0.609,-0.613 0.414,0 0.625,0.285 0.625,0.629 0,0.527 -0.527,0.996 -1.281,0.996 -0.996,0 -2.207,-0.754 -2.207,-2.266 l 0,-1.636 -1.121,0 0,-0.442 1.121,0 0,-4.613 c 0,-0.637 -0.152,-0.637 -1.109,-0.637 l 0,-0.441 c 0.558,0.012 1.226,0.047 1.625,0.047 0.566,0 1.238,0 1.808,-0.047 l 0,0.441 -0.3,0 c -1.055,0 -1.079,0.157 -1.079,0.668 l 0,4.582 1.618,0 0,0.442 -1.664,0 z"
         style="fill:#000000;fill-opacity:1;fill-rule:nonzero;stroke:none"
         id="path318" /><path
         d="m 111.828,5.865 2.039,0 0,0.442 -2.039,0 0,2.621 -0.355,0 c -0.016,-1.164 -0.442,-2.692 -1.836,-2.746 l 0,-0.317 1.211,0 0,-3.929 c 0,-1.75 1.32,-1.918 1.832,-1.918 1.011,0 1.414,1.007 1.414,1.918 l 0,0.812 -0.36,0 0,-0.781 c 0,-1.055 -0.425,-1.594 -0.953,-1.594 -0.953,0 -0.953,1.293 -0.953,1.539 l 0,3.953 z"
         style="fill:#000000;fill-opacity:1;fill-rule:nonzero;stroke:none"
         id="path320" /><path
         d="m 116.453,1.252 0,-0.055 -0.004,-0.054 -0.004,-0.051 0,-0.051 -0.015,-0.086 -0.016,-0.07 -0.012,-0.031 -0.015,-0.032 -0.016,-0.027 -0.039,-0.047 -0.023,-0.019 -0.028,-0.02 -0.027,-0.012 -0.063,-0.031 -0.039,-0.008 -0.039,-0.011 -0.047,-0.004 -0.046,-0.008 -0.051,-0.004 -0.024,-0.004 -0.031,-0.004 -0.055,0 -0.031,-0.004 -0.062,0 -0.032,-0.004 -0.394,0 0,-0.441 c 0.5,0.012 1.222,0.047 1.605,0.047 0.371,0 1.114,-0.035 1.598,-0.047 l 0,0.441 c -0.953,0 -1.109,0 -1.109,0.637 l 0,2.621 c 0,1.484 1.011,2.277 1.918,2.277 0.898,0 1.054,-0.769 1.054,-1.578 l 0,-3.32 c 0,-0.637 -0.156,-0.637 -1.109,-0.637 l 0,-0.441 c 0.5,0.012 1.226,0.047 1.609,0.047 0.371,0 1.11,-0.035 1.594,-0.047 l 0,0.441 c -0.742,0 -1.098,0 -1.109,0.43 l 0,2.719 c 0,1.222 0,1.664 -0.446,2.172 -0.195,0.246 -0.668,0.527 -1.488,0.527 -1.195,0 -1.828,-0.852 -2.066,-1.391 l 0,4.981 -2.051,-0.156 0,-0.442 c 0.996,0 1.113,-0.098 1.113,-0.801 l 0,-7.402 z"
         style="fill:#000000;fill-opacity:1;fill-rule:nonzero;stroke:none"
         id="path322" /><path
         d="m 125.32,6.463 -1.992,-0.156 0,-0.442 c 0.926,0 1.055,-0.086 1.055,-0.781 l 0,-3.832 c 0,-0.637 -0.153,-0.637 -1.11,-0.637 l 0,-0.441 c 0.457,0.012 1.223,0.047 1.567,0.047 0.5,0 0.996,-0.035 1.48,-0.047 l 0,0.441 c -0.937,0 -1,0.071 -1,0.625 l 0,5.223 z"
         style="fill:#000000;fill-opacity:1;fill-rule:nonzero;stroke:none"
         id="path324" /><path
         d="m 125.383,8.943 -0.004,0.039 -0.004,0.043 -0.004,0.039 -0.016,0.079 -0.011,0.035 -0.012,0.039 -0.016,0.035 -0.011,0.031 -0.02,0.035 -0.039,0.063 -0.047,0.055 -0.019,0.027 -0.028,0.023 -0.027,0.028 -0.027,0.023 -0.028,0.02 -0.062,0.039 -0.094,0.047 -0.07,0.023 -0.071,0.016 -0.039,0.004 -0.07,0.007 -0.039,0.004 c -0.441,0 -0.754,-0.386 -0.754,-0.754 0,-0.386 0.313,-0.757 0.754,-0.757 0.398,0 0.758,0.3 0.758,0.757 z"
         style="fill:#000000;fill-opacity:1;fill-rule:nonzero;stroke:none"
         id="path326" /><path
         d="m 128.312,5.072 0,-3.82 c 0,-0.637 -0.152,-0.637 -1.113,-0.637 l 0,-0.441 c 0.5,0.012 1.227,0.047 1.61,0.047 0.371,0 1.113,-0.035 1.593,-0.047 l 0,0.441 c -0.949,0 -1.105,0 -1.105,0.637 l 0,2.621 c 0,1.484 1.008,2.277 1.918,2.277 0.898,0 1.055,-0.769 1.055,-1.578 l 0,-3.32 c 0,-0.637 -0.157,-0.637 -1.11,-0.637 l 0,-0.441 c 0.5,0.012 1.223,0.047 1.61,0.047 0.367,0 1.105,-0.035 1.589,-0.047 l 0,0.441 c -0.738,0 -1.093,0 -1.109,0.43 l 0,2.719 c 0,1.222 0,1.664 -0.441,2.172 -0.196,0.246 -0.672,0.527 -1.493,0.527 -1.039,0 -1.711,-0.613 -2.105,-1.488 l 0,1.488 -2.012,-0.156 0,-0.442 c 1,0 1.113,-0.097 1.113,-0.793 z"
         style="fill:#000000;fill-opacity:1;fill-rule:nonzero;stroke:none"
         id="path328" /><path
         d="m 136.234,5.072 0,-3.82 c 0,-0.637 -0.16,-0.637 -1.113,-0.637 l 0,-0.441 c 0.5,0.012 1.223,0.047 1.609,0.047 0.368,0 1.11,-0.035 1.59,-0.047 l 0,0.441 c -0.949,0 -1.105,0 -1.105,0.637 l 0,2.621 c 0,1.484 1.008,2.277 1.922,2.277 0.894,0 1.051,-0.769 1.051,-1.578 l 0,-3.32 c 0,-0.637 -0.157,-0.637 -1.114,-0.637 l 0,-0.441 c 0.5,0.012 1.231,0.047 1.617,0.047 0.368,0 1.106,-0.035 1.59,-0.047 l 0,0.441 c -0.738,0 -1.097,0 -1.113,0.43 l 0,2.719 c 0,1.222 0,1.664 -0.438,2.172 -0.199,0.246 -0.671,0.527 -1.492,0.527 -1.039,0 -1.711,-0.613 -2.109,-1.488 l 0,1.488 -2.008,-0.156 0,-0.442 c 0.996,0 1.113,-0.097 1.113,-0.793 z"
         style="fill:#000000;fill-opacity:1;fill-rule:nonzero;stroke:none"
         id="path330" /><path
         d="m 144.168,3.463 0.012,0.301 c 0.086,2.117 1.281,2.472 1.765,2.472 1.469,0 1.61,-1.922 1.61,-2.472 l -3.375,0 -0.012,-0.301 3.969,0 c 0.316,0 0.355,0 0.355,0.301 0,1.402 -0.769,2.785 -2.547,2.785 -1.648,0 -2.961,-1.465 -2.961,-3.246 0,-1.906 1.493,-3.285 3.133,-3.285 1.735,0 2.375,1.578 2.375,1.847 0,0.141 -0.109,0.172 -0.183,0.172 -0.129,0 -0.157,-0.082 -0.188,-0.199 -0.496,-1.465 -1.777,-1.465 -1.922,-1.465 -0.711,0 -1.277,0.426 -1.605,0.953 -0.426,0.68 -0.426,1.625 -0.426,2.137 z"
         style="fill:#000000;fill-opacity:1;fill-rule:nonzero;stroke:none"
         id="path332" /><path
         d="m 154.305,0.955 0,-0.937 2.086,0.156 0,0.441 c -0.993,0 -1.106,0.098 -1.106,0.797 l 0,8.641 -2.047,-0.156 0,-0.442 c 0.996,0 1.106,-0.098 1.106,-0.801 l 0,-3.07 c -0.41,0.508 -1.024,0.879 -1.793,0.879 l 0.054,-0.313 c 0.5,0 1.102,-0.214 1.543,-0.851 0.157,-0.242 0.157,-0.274 0.157,-0.527 l 0,-2.922 c 0,-0.254 0,-0.286 -0.157,-0.524 -0.429,-0.683 -1.074,-0.996 -1.683,-0.996 -0.637,0 -1.153,0.367 -1.488,0.91 -0.372,0.586 -0.418,1.395 -0.418,1.981 0,0.523 0.027,1.383 0.441,2.019 0.301,0.442 0.84,0.91 1.605,0.91 l -0.054,0.313 c -1.68,0 -3.176,-1.391 -3.176,-3.227 0,-1.808 1.398,-3.218 3.016,-3.218 0.914,0 1.554,0.48 1.914,0.937 z"
         style="fill:#000000;fill-opacity:1;fill-rule:nonzero;stroke:none"
         id="path334" /><path
         d="m 163.125,3.463 0.012,0.301 c 0.086,2.117 1.281,2.472 1.769,2.472 1.465,0 1.606,-1.922 1.606,-2.472 l -3.375,0 -0.012,-0.301 3.973,0 c 0.312,0 0.351,0 0.351,0.301 0,1.402 -0.769,2.785 -2.543,2.785 -1.652,0 -2.965,-1.465 -2.965,-3.246 0,-1.906 1.497,-3.285 3.133,-3.285 1.738,0 2.375,1.578 2.375,1.847 0,0.141 -0.109,0.172 -0.183,0.172 -0.129,0 -0.157,-0.082 -0.184,-0.199 -0.5,-1.465 -1.777,-1.465 -1.922,-1.465 -0.715,0 -1.281,0.426 -1.609,0.953 -0.426,0.68 -0.426,1.625 -0.426,2.137 z"
         style="fill:#000000;fill-opacity:1;fill-rule:nonzero;stroke:none"
         id="path336" /><path
         d="m 173.773,4.912 0.012,0.031 0.012,0.036 0.047,0.105 0.015,0.039 0.02,0.035 0.019,0.039 0.071,0.117 0.027,0.043 0.027,0.036 0.032,0.039 0.035,0.039 0.109,0.109 0.043,0.031 0.047,0.036 0.051,0.031 0.051,0.027 0.054,0.024 0.055,0.027 0.062,0.023 0.063,0.02 0.066,0.019 0.075,0.016 0.074,0.012 0.035,0.004 0.039,0.007 0.043,0 0.086,0.008 0.039,0 0,0.442 c -0.328,-0.028 -0.738,-0.039 -1.062,-0.039 -0.348,0 -1,0.027 -1.243,0.039 l 0,-0.442 c 0.528,-0.015 0.68,-0.34 0.68,-0.613 0,-0.125 -0.023,-0.18 -0.082,-0.34 l -1.449,-3.629 -1.598,3.969 c -0.086,0.191 -0.086,0.215 -0.086,0.246 0,0.367 0.555,0.367 0.809,0.367 l 0,0.442 c -0.422,-0.012 -1.223,-0.039 -1.547,-0.039 -0.383,0 -0.953,0.011 -1.379,0.039 l 0,-0.442 c 0.895,0 0.949,-0.086 1.141,-0.527 l 2.046,-5.047 c 0.083,-0.203 0.114,-0.273 0.297,-0.273 0.188,0 0.243,0.129 0.301,0.273 l 1.863,4.621 z"
         style="fill:#000000;fill-opacity:1;fill-rule:nonzero;stroke:none"
         id="path338" /><path
         d="m 176.531,3.463 0.012,0.301 c 0.082,2.117 1.281,2.472 1.766,2.472 1.468,0 1.609,-1.922 1.609,-2.472 l -3.375,0 -0.012,-0.301 3.973,0 c 0.312,0 0.351,0 0.351,0.301 0,1.402 -0.769,2.785 -2.546,2.785 -1.649,0 -2.961,-1.465 -2.961,-3.246 0,-1.906 1.492,-3.285 3.132,-3.285 1.739,0 2.375,1.578 2.375,1.847 0,0.141 -0.113,0.172 -0.183,0.172 -0.129,0 -0.156,-0.082 -0.188,-0.199 -0.496,-1.465 -1.773,-1.465 -1.918,-1.465 -0.714,0 -1.281,0.426 -1.609,0.953 -0.426,0.68 -0.426,1.625 -0.426,2.137 z"
         style="fill:#000000;fill-opacity:1;fill-rule:nonzero;stroke:none"
         id="path340" /><path
         d="m 182.824,5.072 0,-3.82 c 0,-0.637 -0.156,-0.637 -1.113,-0.637 l 0,-0.441 c 0.5,0.012 1.223,0.047 1.609,0.047 0.371,0 1.114,-0.035 1.594,-0.047 l 0,0.441 c -0.949,0 -1.105,0 -1.105,0.637 l 0,2.621 c 0,1.484 1.007,2.277 1.918,2.277 0.898,0 1.054,-0.769 1.054,-1.578 l 0,-3.32 c 0,-0.637 -0.156,-0.637 -1.113,-0.637 l 0,-0.441 c 0.5,0.012 1.227,0.047 1.613,0.047 0.367,0 1.106,-0.035 1.59,-0.047 l 0,0.441 c -0.738,0 -1.094,0 -1.109,0.43 l 0,2.719 c 0,1.222 0,1.664 -0.442,2.172 -0.195,0.246 -0.672,0.527 -1.492,0.527 -1.039,0 -1.711,-0.613 -2.105,-1.488 l 0,1.488 -2.012,-0.156 0,-0.442 c 1,0 1.113,-0.097 1.113,-0.793 z"
         style="fill:#000000;fill-opacity:1;fill-rule:nonzero;stroke:none"
         id="path342" /><path
         d="m 191.23,5.865 2.036,0 0,0.442 -2.036,0 0,2.621 -0.359,0 C 190.859,7.764 190.43,6.236 189.039,6.182 l 0,-0.317 1.207,0 0,-3.929 c 0,-1.75 1.324,-1.918 1.836,-1.918 1.008,0 1.41,1.007 1.41,1.918 l 0,0.812 -0.355,0 0,-0.781 c 0,-1.055 -0.43,-1.594 -0.957,-1.594 -0.95,0 -0.95,1.293 -0.95,1.539 l 0,3.953 z"
         style="fill:#000000;fill-opacity:1;fill-rule:nonzero;stroke:none"
         id="path344" /><path
         d="m 197.238,2.936 0.028,-0.004 0.058,-0.008 0.028,-0.008 0.058,-0.012 0.028,-0.011 0.058,-0.012 0.055,-0.012 0.058,-0.019 0.059,-0.016 0.055,-0.02 0.117,-0.046 0.086,-0.028 0.054,-0.031 0.059,-0.031 0.055,-0.031 0.058,-0.043 0.086,-0.04 0.059,-0.042 0.055,-0.047 0.031,-0.051 0.055,-0.055 0.058,-0.055 0.055,-0.062 0.031,-0.063 0.027,-0.035 0,-0.031 0.028,-0.039 0,-0.035 0.031,-0.039 0,-0.035 0.027,-0.043 0,-0.082 0.028,-0.043 0,-0.184 c 0,-0.723 -0.485,-1.293 -1.598,-1.293 -1.199,0 -1.715,0.813 -1.973,2.02 -0.058,0.183 -0.058,0.242 -0.199,0.242 -0.199,0 -0.199,-0.098 -0.199,-0.356 l 0,-1.879 c 0,-0.242 0,-0.339 0.172,-0.339 0.054,0 0.082,0.011 0.34,0.285 0.031,0.027 0.031,0.054 0.285,0.324 0.629,-0.598 1.258,-0.609 1.574,-0.609 1.629,0 2.285,0.957 2.285,1.976 0,0.754 -0.43,1.184 -0.601,1.352 -0.457,0.457 -1.028,0.574 -1.629,0.683 -0.797,0.157 -1.742,0.344 -1.742,1.168 0,0.5 0.371,1.082 1.601,1.082 1.543,0 1.629,-1.281 1.656,-1.722 0.028,-0.129 0.145,-0.129 0.172,-0.129 0.199,0 0.199,0.07 0.199,0.344 l 0,1.437 c 0,0.242 0,0.34 -0.171,0.34 -0.086,0 -0.086,0 -0.286,-0.168 -0.027,-0.063 -0.171,-0.184 -0.226,-0.231 -0.543,0.399 -1.145,0.399 -1.344,0.399 -1.742,0 -2.285,-0.953 -2.285,-1.75 0,-0.496 0.226,-0.899 0.598,-1.211 0.457,-0.367 0.859,-0.453 1.886,-0.652 z"
         style="fill:#000000;fill-opacity:1;fill-rule:nonzero;stroke:none"
         id="path346" /></g></g></svg>